<?xml version="1.0" encoding="utf-8"?>
<!-- Generator: Adobe Illustrator 27.5.0, SVG Export Plug-In . SVG Version: 6.00 Build 0)  -->
<svg version="1.1" xmlns="http://www.w3.org/2000/svg" xmlns:xlink="http://www.w3.org/1999/xlink" x="0px" y="0px"
	 viewBox="0 0 500 500" style="enable-background:new 0 0 500 500;" xml:space="preserve">
<g id="Floor">
	<path id="Floor_3_" style="fill:#FAFAFA;" d="M81.079,451.541c-93.292-53.863-93.292-141.191,0-195.053s244.549-53.862,337.841,0
		c93.292,53.862,93.292,141.19,0,195.053C325.628,505.404,174.372,505.404,81.079,451.541z"/>
</g>
<g id="Shadows">
	<polygon id="Shadow_7_" style="fill:#E6E6E6;" points="279.363,369.494 285.445,444.962 263.659,457.54 132.942,457.54 
		111.157,444.962 117.325,369.443 139.025,356.916 257.577,356.916 	"/>
	<ellipse id="Shadow" style="fill:#E6E6E6;" cx="326.177" cy="417.065" rx="74.624" ry="43.084"/>
</g>
<g id="Trophy_1_">
	<g id="Trophy">
		<g>
			<g>
				<polygon style="fill:#37474F;" points="259.444,365.591 243.013,356.104 153.594,356.105 137.227,365.554 132.574,422.514 
					132.574,428.483 149.006,437.969 247.6,437.969 264.032,428.482 264.032,422.514 				"/>
				<polygon style="opacity:0.1;" points="149.006,437.969 149.006,432.001 132.574,422.514 132.574,428.483 				"/>
				<polygon style="opacity:0.1;" points="247.6,437.969 247.6,432.001 264.032,422.514 264.032,428.483 				"/>
				<g>
					<polygon style="fill:#455A64;" points="259.445,365.591 264.032,422.514 247.6,432.001 149.006,432.001 132.574,422.514 
						137.227,365.554 153.594,356.105 243.013,356.104 					"/>
				</g>
			</g>
			<path style="fill:#263238;" d="M256.609,364.139l2.022,21.301l0.001,0.005l0,0.008c0.092,10.171,0.07,20.341,0.108,30.512
				l0.001,0.146l-0.128,0.074l-15.025,8.722l-0.068,0.039l-0.08,0l-45.137,0.106l-45.137-0.106l-0.08,0l-0.068-0.039l-15.025-8.722
				l-0.128-0.074l0.001-0.146c0.038-10.171,0.015-20.341,0.108-30.512v-0.008l0.001-0.005l2.037-21.21l-1.745,21.236l0.001-0.013
				c0.093,10.171,0.07,20.341,0.108,30.512l-0.127-0.22l15.066,8.651l-0.148-0.04l45.137-0.105l45.137,0.106l-0.147,0.039
				l15.066-8.651l-0.127,0.22c0.038-10.171,0.016-20.341,0.108-30.512l0.001,0.013L256.609,364.139z"/>
			<g>
				<polygon style="fill:#37474F;" points="253.898,333.334 238.853,324.648 157.754,324.648 142.768,333.299 138.12,385.453 
					138.155,385.474 138.12,415.965 153.166,424.651 243.44,424.651 258.485,415.965 258.485,385.453 				"/>
				<g>
					<polygon style="fill:#455A64;" points="253.898,333.334 258.485,385.453 243.44,394.14 153.166,394.14 138.12,385.453 
						142.768,333.299 157.754,324.648 238.853,324.648 					"/>
				</g>
				<polygon style="opacity:0.1;" points="153.166,424.651 153.166,394.14 138.12,385.453 138.12,415.965 				"/>
				<polygon style="opacity:0.1;" points="243.44,424.651 243.44,394.14 258.485,385.453 258.485,415.965 				"/>
			</g>
		</g>
		<g>
			<g>
				<rect x="172.958" y="398.845" style="fill:#263238;" width="49.631" height="19.034"/>
				<rect x="174.017" y="399.677" style="fill:#FAFAFA;" width="49.631" height="19.034"/>
			</g>
			<g>
				<path style="fill:#BA68C8;" d="M219.324,407.046v-0.517c0-1.437-0.931-2.395-2.393-2.394c-1.466-0.002-2.397,0.957-2.397,2.393
					v1.293c0,1.437,0.931,2.395,2.397,2.394c0.412-0.001,0.645,0.26,0.645,0.647v0.996c0,0.389-0.233,0.648-0.645,0.648
					c-0.416-0.001-0.649-0.259-0.649-0.649v-0.517l-1.749,0.001v0.517c0,1.437,0.931,2.393,2.397,2.395
					c1.462-0.001,2.393-0.958,2.393-2.395v-0.997c0-1.437-0.931-2.393-2.393-2.394c-0.416,0-0.649-0.259-0.649-0.646v-1.295
					c0-0.388,0.233-0.647,0.649-0.646c0.412-0.001,0.645,0.257,0.645,0.646v0.518L219.324,407.046z M193.477,404.134
					c-1.462,0-2.393,0.958-2.393,2.395v5.331c0,1.437,0.931,2.393,2.393,2.394c1.466,0.001,2.397-0.957,2.397-2.393v-0.517
					l-1.749-0.001v0.517c0,0.389-0.233,0.648-0.648,0.647c-0.412,0.001-0.645-0.257-0.645-0.647v-5.331
					c0-0.388,0.233-0.647,0.645-0.647c0.416,0.001,0.648,0.259,0.648,0.648v0.518l1.749-0.001v-0.517
					C195.874,405.092,194.943,404.134,193.477,404.134z M180.735,404.134c-1.464,0-2.395,0.957-2.395,2.394v1.295
					c0,1.437,0.931,2.393,2.395,2.393c0.414,0,0.647,0.259,0.647,0.647v0.997c0,0.388-0.233,0.647-0.647,0.647
					c-0.414,0-0.646-0.258-0.646-0.647v-0.517l-1.749-0.001v0.517c0,1.437,0.931,2.395,2.395,2.394
					c1.464,0.001,2.395-0.957,2.395-2.394v-0.996c0-1.437-0.931-2.395-2.395-2.394c-0.414,0.001-0.646-0.258-0.646-0.647v-1.293
					c0-0.389,0.233-0.648,0.646-0.648c0.414,0,0.647,0.258,0.647,0.648v0.517l1.749,0.001v-0.518
					C183.13,405.091,182.199,404.135,180.735,404.134z M187.65,411.859c0,0.39-0.233,0.648-0.649,0.648
					c-0.414,0-0.646-0.259-0.646-0.648v-7.519l-1.749-0.001v7.52c0,1.437,0.933,2.394,2.395,2.394
					c1.464-0.001,2.397-0.958,2.397-2.395v-7.519l-1.749,0.001V411.859z M210.908,404.135c-1.464-0.001-2.397,0.957-2.397,2.393
					v1.293c0,1.437,0.933,2.395,2.397,2.394c0.414,0,0.646,0.26,0.646,0.648v0.996c0,0.389-0.233,0.648-0.646,0.648
					c-0.416-0.001-0.649-0.259-0.649-0.649v-0.517l-1.749,0.001v0.517c0,1.437,0.933,2.394,2.397,2.395
					c1.462-0.001,2.395-0.957,2.395-2.394v-0.997c0-1.437-0.933-2.394-2.395-2.395c-0.416,0-0.649-0.259-0.649-0.646v-1.295
					c0-0.388,0.233-0.647,0.649-0.646c0.414,0,0.646,0.258,0.646,0.647v0.518l1.749-0.001v-0.517
					C213.303,405.092,212.37,404.134,210.908,404.135z M203.294,414.047l4.012-0.001v-1.747l-2.266,0v-2.523l1.918-0.001v-1.747
					l-1.918,0v-1.942l2.266,0v-1.747l-4.012,0.001V414.047z M199.511,404.134c-1.462,0.001-2.395,0.957-2.395,2.394v5.331
					c0,1.437,0.933,2.395,2.395,2.394c1.464,0,2.397-0.958,2.397-2.395v-0.517l-1.749,0.001v0.517c0,0.389-0.233,0.647-0.648,0.647
					c-0.414,0-0.646-0.259-0.646-0.647v-5.331c0-0.39,0.233-0.648,0.646-0.648c0.416,0,0.648,0.259,0.648,0.648v0.518l1.749,0.001
					v-0.519C201.908,405.091,200.975,404.134,199.511,404.134z"/>
				<path style="opacity:0.4;fill:#FFFFFF;" d="M219.324,407.046v-0.517c0-1.437-0.931-2.395-2.393-2.394
					c-1.466-0.002-2.397,0.957-2.397,2.393v1.293c0,1.437,0.931,2.395,2.397,2.394c0.412-0.001,0.645,0.26,0.645,0.647v0.996
					c0,0.389-0.233,0.648-0.645,0.648c-0.416-0.001-0.649-0.259-0.649-0.649v-0.517l-1.749,0.001v0.517
					c0,1.437,0.931,2.393,2.397,2.395c1.462-0.001,2.393-0.958,2.393-2.395v-0.997c0-1.437-0.931-2.393-2.393-2.394
					c-0.416,0-0.649-0.259-0.649-0.646v-1.295c0-0.388,0.233-0.647,0.649-0.646c0.412-0.001,0.645,0.257,0.645,0.646v0.518
					L219.324,407.046z M193.477,404.134c-1.462,0-2.393,0.958-2.393,2.395v5.331c0,1.437,0.931,2.393,2.393,2.394
					c1.466,0.001,2.397-0.957,2.397-2.393v-0.517l-1.749-0.001v0.517c0,0.389-0.233,0.648-0.648,0.647
					c-0.412,0.001-0.645-0.257-0.645-0.647v-5.331c0-0.388,0.233-0.647,0.645-0.647c0.416,0.001,0.648,0.259,0.648,0.648v0.518
					l1.749-0.001v-0.517C195.874,405.092,194.943,404.134,193.477,404.134z M180.735,404.134c-1.464,0-2.395,0.957-2.395,2.394
					v1.295c0,1.437,0.931,2.393,2.395,2.393c0.414,0,0.647,0.259,0.647,0.647v0.997c0,0.388-0.233,0.647-0.647,0.647
					c-0.414,0-0.646-0.258-0.646-0.647v-0.517l-1.749-0.001v0.517c0,1.437,0.931,2.395,2.395,2.394
					c1.464,0.001,2.395-0.957,2.395-2.394v-0.996c0-1.437-0.931-2.395-2.395-2.394c-0.414,0.001-0.646-0.258-0.646-0.647v-1.293
					c0-0.389,0.233-0.648,0.646-0.648c0.414,0,0.647,0.258,0.647,0.648v0.517l1.749,0.001v-0.518
					C183.13,405.091,182.199,404.135,180.735,404.134z M187.65,411.859c0,0.39-0.233,0.648-0.649,0.648
					c-0.414,0-0.646-0.259-0.646-0.648v-7.519l-1.749-0.001v7.52c0,1.437,0.933,2.394,2.395,2.394
					c1.464-0.001,2.397-0.958,2.397-2.395v-7.519l-1.749,0.001V411.859z M210.908,404.135c-1.464-0.001-2.397,0.957-2.397,2.393
					v1.293c0,1.437,0.933,2.395,2.397,2.394c0.414,0,0.646,0.26,0.646,0.648v0.996c0,0.389-0.233,0.648-0.646,0.648
					c-0.416-0.001-0.649-0.259-0.649-0.649v-0.517l-1.749,0.001v0.517c0,1.437,0.933,2.394,2.397,2.395
					c1.462-0.001,2.395-0.957,2.395-2.394v-0.997c0-1.437-0.933-2.394-2.395-2.395c-0.416,0-0.649-0.259-0.649-0.646v-1.295
					c0-0.388,0.233-0.647,0.649-0.646c0.414,0,0.646,0.258,0.646,0.647v0.518l1.749-0.001v-0.517
					C213.303,405.092,212.37,404.134,210.908,404.135z M203.294,414.047l4.012-0.001v-1.747l-2.266,0v-2.523l1.918-0.001v-1.747
					l-1.918,0v-1.942l2.266,0v-1.747l-4.012,0.001V414.047z M199.511,404.134c-1.462,0.001-2.395,0.957-2.395,2.394v5.331
					c0,1.437,0.933,2.395,2.395,2.394c1.464,0,2.397-0.958,2.397-2.395v-0.517l-1.749,0.001v0.517c0,0.389-0.233,0.647-0.648,0.647
					c-0.414,0-0.646-0.259-0.646-0.647v-5.331c0-0.39,0.233-0.648,0.646-0.648c0.416,0,0.648,0.259,0.648,0.648v0.518l1.749,0.001
					v-0.519C201.908,405.091,200.975,404.134,199.511,404.134z"/>
				<g style="opacity:0.4;">
					<path style="fill:#FFFFFF;" d="M180.735,414.254c1.464,0.001,2.395-0.957,2.395-2.394v-0.337l-4.305,1.868
						C179.239,413.931,179.895,414.254,180.735,414.254z"/>
					<path style="fill:#FFFFFF;" d="M184.607,410.882v0.978c0,1.437,0.933,2.394,2.395,2.394c1.464-0.001,2.397-0.958,2.397-2.395
						v-3.058l-1.749,0.759v2.298c0,0.39-0.233,0.648-0.649,0.648c-0.414,0-0.646-0.259-0.646-0.648v-1.737L184.607,410.882z"/>
					<path style="fill:#FFFFFF;" d="M199.511,405.881c0.416,0,0.648,0.259,0.648,0.648v0.518l1.749,0.001v-0.519
						c0-1.252-0.71-2.139-1.861-2.346l-2.615,1.135c-0.185,0.35-0.316,0.742-0.316,1.212v5.331c0,0.215,0.027,0.415,0.068,0.608
						l1.681-0.729v-5.209C198.864,406.138,199.097,405.881,199.511,405.881z"/>
					<polygon style="fill:#FFFFFF;" points="205.041,408.03 205.041,406.088 207.307,406.087 207.307,404.34 203.294,404.341 
						203.294,409.815 206.959,408.225 206.959,408.029 					"/>
					<path style="fill:#FFFFFF;" d="M194.126,407.046l1.749-0.001v-0.517c0-0.181-0.015-0.353-0.044-0.518l-1.705,0.74V407.046z"/>
					<path style="fill:#FFFFFF;" d="M195.874,411.86v-0.517l-1.749-0.001v0.517c0,0.389-0.233,0.648-0.648,0.647
						c-0.412,0.001-0.645-0.257-0.645-0.647v-4.547l-1.749,0.759v3.789c0,1.319,0.79,2.223,2.049,2.365l2.338-1.014
						C195.708,412.833,195.874,412.395,195.874,411.86z"/>
					<path style="fill:#FFFFFF;" d="M215.833,404.374l0.189-0.082C215.955,404.315,215.896,404.345,215.833,404.374z"/>
					<path style="fill:#FFFFFF;" d="M210.908,404.135c-1.464-0.001-2.397,0.957-2.397,2.393v1.023l1.749-0.759v-0.265
						c0-0.388,0.233-0.647,0.649-0.646c0.305,0,0.509,0.141,0.597,0.37l1.628-0.707
						C212.801,404.672,212.003,404.134,210.908,404.135z"/>
				</g>
				<path style="opacity:0.8;fill:#BA68C8;" d="M180.735,404.134c-1.464,0-2.395,0.957-2.395,2.394v1.295
					c0,0.095,0.015,0.182,0.023,0.273l1.726-0.749v-0.818c0-0.389,0.233-0.648,0.646-0.648c0.414,0,0.647,0.258,0.647,0.648v0.256
					l1.708-0.741C182.902,404.881,182.027,404.135,180.735,404.134z M184.607,404.34v1.046l1.749-0.759v-0.287L184.607,404.34z"/>
				<path style="opacity:0.8;fill:#BA68C8;" d="M210.908,412.508c-0.173,0-0.305-0.054-0.411-0.134l-1.685,0.731
					c0.384,0.714,1.117,1.149,2.096,1.15c1.462-0.001,2.395-0.957,2.395-2.394v-0.705l-1.772,0.769
					C211.501,412.269,211.293,412.508,210.908,412.508z M207.307,414.046v-0.289l-0.666,0.289L207.307,414.046z M218.432,408.93
					l-2.528,1.097c0.302,0.121,0.645,0.189,1.027,0.189c0.412-0.001,0.645,0.26,0.645,0.647v0.996c0,0.389-0.233,0.648-0.645,0.648
					c-0.416-0.001-0.649-0.259-0.649-0.649v-0.517l-1.749,0.001v0.517c0,1.437,0.931,2.393,2.397,2.395
					c1.462-0.001,2.393-0.958,2.393-2.395v-0.997C219.324,410.017,218.995,409.346,218.432,408.93z"/>
			</g>
		</g>
		<ellipse style="opacity:0.1;" cx="198.303" cy="361.446" rx="49.446" ry="28.548"/>
		<g>
			<g>
				<path style="fill:#BA68C8;" d="M300.987,197.616c2.08,2.773,2.559,6.229,2.07,9.083c-0.451,2.907-1.696,5.494-3.445,7.65
					c-1.746,2.15-4.063,3.902-6.748,4.821c-1.335,0.462-2.744,0.713-4.141,0.745c-0.699,0.004-1.391-0.027-2.074-0.114
					c-0.659-0.095-1.266-0.186-1.9-0.328c-2.498-0.543-5.03-1.544-7.134-3.24c-2.12-1.67-3.67-3.97-4.622-6.371
					c-0.947-2.422-1.306-4.95-1.354-7.446c-0.008-1.254,0.083-2.502,0.309-3.773c0.251-1.313,0.592-2.474,1.046-3.672
					c3.661-9.572,14.051-15.764,24.502-14.821c5.219,0.41,10.428,2.857,14.084,6.755c0.454,0.486,0.88,0.995,1.316,1.496l1.182,1.59
					c0.674,1.06,1.351,2.118,1.932,3.25c1.185,2.243,2.142,4.654,2.749,7.181c1.214,5.064,0.859,10.501-0.779,15.266
					c-1.591,4.8-4.118,9.061-7.006,12.882c-2.905,3.824-6.177,7.247-9.601,10.445c-3.423,3.202-6.995,6.189-10.667,9.022
					c-3.664,2.845-7.477,5.489-11.131,8.173c-3.672,2.7-7.295,5.459-10.832,8.312c-3.532,2.857-6.984,5.804-10.237,8.936
					c-3.255,3.136-6.247,6.49-9.041,10.059c-0.515,0.658-1.466,0.773-2.124,0.258c-0.649-0.508-0.77-1.441-0.278-2.098l0.011-0.014
					c11.242-14.969,26.774-25.777,40.842-37.094c6.917-5.795,13.462-12.133,18.417-19.35c2.474-3.587,4.505-7.416,5.633-11.379
					c1.132-3.958,1.325-8.008,0.316-11.85c-0.474-1.925-1.224-3.799-2.187-5.598c-0.468-0.906-1.035-1.772-1.59-2.645l-0.849-1.18
					l-0.934-1.099c-2.609-2.791-6.063-4.73-9.957-5.355c-3.87-0.667-8.072-0.07-11.744,1.723c-3.668,1.766-6.791,4.816-8.365,8.613
					c-0.193,0.475-0.402,0.945-0.54,1.442c-0.163,0.502-0.322,0.968-0.397,1.451c-0.185,0.981-0.274,2.027-0.276,3.062
					c-0.014,2.075,0.358,4.156,1.159,5.977c0.772,1.838,2.03,3.36,3.583,4.44c1.551,1.094,3.438,1.718,5.425,2.019
					c0.488,0.079,1.022,0.122,1.499,0.16c0.459,0.024,0.91,0.007,1.357-0.026c0.891-0.09,1.75-0.314,2.556-0.664
					c1.61-0.698,3.027-1.902,4.03-3.408c1.003-1.498,1.615-3.271,1.697-4.918c0.083-1.67-0.466-3.049-1.29-3.864
					c-1.407-1.39-1.421-3.658-0.03-5.065c1.39-1.407,3.658-1.42,5.065-0.03c0.122,0.121,0.234,0.249,0.336,0.382L300.987,197.616z"
					/>
				<path style="opacity:0.7;fill:#FFFFFF;" d="M300.987,197.616c2.08,2.773,2.559,6.229,2.07,9.083
					c-0.451,2.907-1.696,5.494-3.445,7.65c-1.746,2.15-4.063,3.902-6.748,4.821c-1.335,0.462-2.744,0.713-4.141,0.745
					c-0.699,0.004-1.391-0.027-2.074-0.114c-0.659-0.095-1.266-0.186-1.9-0.328c-2.498-0.543-5.03-1.544-7.134-3.24
					c-2.12-1.67-3.67-3.97-4.622-6.371c-0.947-2.422-1.306-4.95-1.354-7.446c-0.008-1.254,0.083-2.502,0.309-3.773
					c0.251-1.313,0.592-2.474,1.046-3.672c3.661-9.572,14.051-15.764,24.502-14.821c5.219,0.41,10.428,2.857,14.084,6.755
					c0.454,0.486,0.88,0.995,1.316,1.496l1.182,1.59c0.674,1.06,1.351,2.118,1.932,3.25c1.185,2.243,2.142,4.654,2.749,7.181
					c1.214,5.064,0.859,10.501-0.779,15.266c-1.591,4.8-4.118,9.061-7.006,12.882c-2.905,3.824-6.177,7.247-9.601,10.445
					c-3.423,3.202-6.995,6.189-10.667,9.022c-3.664,2.845-7.477,5.489-11.131,8.173c-3.672,2.7-7.295,5.459-10.832,8.312
					c-3.532,2.857-6.984,5.804-10.237,8.936c-3.255,3.136-6.247,6.49-9.041,10.059c-0.515,0.658-1.466,0.773-2.124,0.258
					c-0.649-0.508-0.77-1.441-0.278-2.098l0.011-0.014c11.242-14.969,26.774-25.777,40.842-37.094
					c6.917-5.795,13.462-12.133,18.417-19.35c2.474-3.587,4.505-7.416,5.633-11.379c1.132-3.958,1.325-8.008,0.316-11.85
					c-0.474-1.925-1.224-3.799-2.187-5.598c-0.468-0.906-1.035-1.772-1.59-2.645l-0.849-1.18l-0.934-1.099
					c-2.609-2.791-6.063-4.73-9.957-5.355c-3.87-0.667-8.072-0.07-11.744,1.723c-3.668,1.766-6.791,4.816-8.365,8.613
					c-0.193,0.475-0.402,0.945-0.54,1.442c-0.163,0.502-0.322,0.968-0.397,1.451c-0.185,0.981-0.274,2.027-0.276,3.062
					c-0.014,2.075,0.358,4.156,1.159,5.977c0.772,1.838,2.03,3.36,3.583,4.44c1.551,1.094,3.438,1.718,5.425,2.019
					c0.488,0.079,1.022,0.122,1.499,0.16c0.459,0.024,0.91,0.007,1.357-0.026c0.891-0.09,1.75-0.314,2.556-0.664
					c1.61-0.698,3.027-1.902,4.03-3.408c1.003-1.498,1.615-3.271,1.697-4.918c0.083-1.67-0.466-3.049-1.29-3.864
					c-1.407-1.39-1.421-3.658-0.03-5.065c1.39-1.407,3.658-1.42,5.065-0.03c0.122,0.121,0.234,0.249,0.336,0.382L300.987,197.616z"
					/>
				<path style="fill:#BA68C8;" d="M101.146,202.119c-0.824,0.814-1.372,2.193-1.29,3.864c0.082,1.646,0.694,3.42,1.697,4.918
					c1.003,1.506,2.42,2.711,4.03,3.408c0.807,0.35,1.666,0.573,2.556,0.664c0.447,0.032,0.899,0.05,1.357,0.026
					c0.477-0.037,1.01-0.081,1.499-0.16c1.987-0.301,3.874-0.925,5.425-2.019c1.553-1.079,2.811-2.602,3.583-4.44
					c0.8-1.821,1.173-3.902,1.159-5.977c-0.002-1.035-0.091-2.081-0.276-3.062c-0.075-0.484-0.234-0.95-0.397-1.451
					c-0.138-0.497-0.347-0.967-0.54-1.442c-1.574-3.797-4.696-6.846-8.365-8.613c-3.672-1.793-7.874-2.391-11.744-1.723
					c-3.894,0.624-7.347,2.564-9.957,5.355l-0.934,1.099l-0.849,1.18c-0.555,0.872-1.122,1.739-1.59,2.645
					c-0.962,1.799-1.712,3.674-2.187,5.598c-1.009,3.841-0.816,7.892,0.316,11.85c1.128,3.963,3.159,7.792,5.633,11.379
					c4.955,7.217,11.5,13.555,18.417,19.35c14.068,11.317,29.6,22.125,40.842,37.094l0.01,0.013
					c0.502,0.668,0.367,1.616-0.301,2.118c-0.66,0.495-1.593,0.369-2.099-0.277c-2.794-3.568-5.786-6.923-9.041-10.059
					c-3.253-3.132-6.705-6.079-10.237-8.936c-3.537-2.853-7.161-5.611-10.833-8.312c-3.654-2.684-7.467-5.327-11.131-8.173
					c-3.673-2.833-7.244-5.82-10.667-9.022c-3.424-3.198-6.696-6.622-9.601-10.445c-2.888-3.821-5.414-8.082-7.006-12.882
					c-1.638-4.764-1.993-10.201-0.779-15.266c0.607-2.527,1.564-4.939,2.749-7.181c0.582-1.132,1.258-2.19,1.932-3.25l1.182-1.59
					c0.437-0.501,0.863-1.01,1.316-1.496c3.656-3.898,8.865-6.346,14.084-6.755c10.451-0.943,20.841,5.249,24.502,14.821
					c0.454,1.198,0.795,2.36,1.046,3.672c0.227,1.271,0.317,2.519,0.309,3.773c-0.048,2.496-0.407,5.024-1.354,7.446
					c-0.952,2.401-2.502,4.701-4.622,6.371c-2.104,1.696-4.636,2.698-7.133,3.24c-0.634,0.143-1.241,0.233-1.9,0.328
					c-0.683,0.088-1.376,0.118-2.074,0.114c-1.397-0.032-2.806-0.283-4.141-0.745c-2.686-0.92-5.003-2.672-6.748-4.821
					c-1.749-2.156-2.994-4.743-3.445-7.65c-0.49-2.854-0.011-6.309,2.07-9.083l0.145-0.194c1.187-1.582,3.432-1.903,5.014-0.716
					c1.582,1.187,1.903,3.432,0.716,5.014C101.39,201.858,101.264,202.001,101.146,202.119z"/>
				<path style="opacity:0.7;fill:#FFFFFF;" d="M101.146,202.119c-0.824,0.814-1.372,2.193-1.29,3.864
					c0.082,1.646,0.694,3.42,1.697,4.918c1.003,1.506,2.42,2.711,4.03,3.408c0.807,0.35,1.666,0.573,2.556,0.664
					c0.447,0.032,0.899,0.05,1.357,0.026c0.477-0.037,1.01-0.081,1.499-0.16c1.987-0.301,3.874-0.925,5.425-2.019
					c1.553-1.079,2.811-2.602,3.583-4.44c0.8-1.821,1.173-3.902,1.159-5.977c-0.002-1.035-0.091-2.081-0.276-3.062
					c-0.075-0.484-0.234-0.95-0.397-1.451c-0.138-0.497-0.347-0.967-0.54-1.442c-1.574-3.797-4.696-6.846-8.365-8.613
					c-3.672-1.793-7.874-2.391-11.744-1.723c-3.894,0.624-7.347,2.564-9.957,5.355l-0.934,1.099l-0.849,1.18
					c-0.555,0.872-1.122,1.739-1.59,2.645c-0.962,1.799-1.712,3.674-2.187,5.598c-1.009,3.841-0.816,7.892,0.316,11.85
					c1.128,3.963,3.159,7.792,5.633,11.379c4.955,7.217,11.5,13.555,18.417,19.35c14.068,11.317,29.6,22.125,40.842,37.094
					l0.01,0.013c0.502,0.668,0.367,1.616-0.301,2.118c-0.66,0.495-1.593,0.369-2.099-0.277c-2.794-3.568-5.786-6.923-9.041-10.059
					c-3.253-3.132-6.705-6.079-10.237-8.936c-3.537-2.853-7.161-5.611-10.833-8.312c-3.654-2.684-7.467-5.327-11.131-8.173
					c-3.673-2.833-7.244-5.82-10.667-9.022c-3.424-3.198-6.696-6.622-9.601-10.445c-2.888-3.821-5.414-8.082-7.006-12.882
					c-1.638-4.764-1.993-10.201-0.779-15.266c0.607-2.527,1.564-4.939,2.749-7.181c0.582-1.132,1.258-2.19,1.932-3.25l1.182-1.59
					c0.437-0.501,0.863-1.01,1.316-1.496c3.656-3.898,8.865-6.346,14.084-6.755c10.451-0.943,20.841,5.249,24.502,14.821
					c0.454,1.198,0.795,2.36,1.046,3.672c0.227,1.271,0.317,2.519,0.309,3.773c-0.048,2.496-0.407,5.024-1.354,7.446
					c-0.952,2.401-2.502,4.701-4.622,6.371c-2.104,1.696-4.636,2.698-7.133,3.24c-0.634,0.143-1.241,0.233-1.9,0.328
					c-0.683,0.088-1.376,0.118-2.074,0.114c-1.397-0.032-2.806-0.283-4.141-0.745c-2.686-0.92-5.003-2.672-6.748-4.821
					c-1.749-2.156-2.994-4.743-3.445-7.65c-0.49-2.854-0.011-6.309,2.07-9.083l0.145-0.194c1.187-1.582,3.432-1.903,5.014-0.716
					c1.582,1.187,1.903,3.432,0.716,5.014C101.39,201.858,101.264,202.001,101.146,202.119z"/>
			</g>
			<g>
				<g>
					<g>
						<path style="fill:#BA68C8;" d="M237.329,349.761c0-5.764-3.797-11.528-11.421-15.935c-15.249-8.814-39.968-8.814-55.201,0
							c-7.152,4.132-10.949,9.454-11.391,14.852c-0.015,0.107-0.015,0.198-0.015,0.305c-0.015,0.259-0.015,0.518-0.015,0.778
							c0,0.259,0,7.218,0,7.478c0,0.259,0,0.518,0.015,0.778c0,0.107,0,0.198,0.015,0.305c0.442,5.398,4.239,10.72,11.391,14.853
							c15.234,8.799,39.952,8.799,55.201,0c7.624-4.407,11.421-10.171,11.421-15.935C237.329,355.99,237.329,351.01,237.329,349.761
							z"/>
						<path style="opacity:0.4;fill:#FFFFFF;" d="M237.329,349.761c0-5.764-3.797-11.528-11.421-15.935
							c-15.249-8.814-39.968-8.814-55.201,0c-7.152,4.132-10.949,9.454-11.391,14.852c-0.015,0.107-0.015,0.198-0.015,0.305
							c-0.015,0.259-0.015,0.518-0.015,0.778c0,0.259,0,7.218,0,7.478c0,0.259,0,0.518,0.015,0.778c0,0.107,0,0.198,0.015,0.305
							c0.442,5.398,4.239,10.72,11.391,14.853c15.234,8.799,39.952,8.799,55.201,0c7.624-4.407,11.421-10.171,11.421-15.935
							C237.329,355.99,237.329,351.01,237.329,349.761z"/>
						<path style="opacity:0.4;fill:#FFFFFF;" d="M203.361,379.56c8.242-0.619,16.213-2.732,22.546-6.386
							c2.562-1.481,4.654-3.124,6.352-4.86v-29.628c-1.699-1.736-3.79-3.379-6.352-4.86c-6.333-3.661-14.304-5.777-22.546-6.397
							V379.56z"/>
						<path style="fill:#BA68C8;" d="M176.22,331.192c-1.936,0.771-3.793,1.639-5.514,2.635
							c-7.152,4.132-10.949,9.454-11.391,14.852c-0.015,0.107-0.015,0.198-0.015,0.305c-0.015,0.259-0.015,0.518-0.015,0.778
							s0,7.218,0,7.478c0,0.259,0,0.518,0.015,0.778c0,0.107,0,0.198,0.015,0.305c0.442,5.398,4.239,10.72,11.391,14.852
							c1.721,0.994,3.578,1.86,5.514,2.63V331.192z"/>
					</g>
					<g>
						<g>
							<path style="fill:#BA68C8;" d="M162.051,357.079c-0.394-0.572-0.742-1.152-1.052-1.737c-0.084-0.159-0.161-0.319-0.239-0.479
								c-0.247-0.506-0.461-1.015-0.645-1.528c-0.058-0.16-0.121-0.319-0.172-0.479c-0.206-0.642-0.375-1.287-0.484-1.935
								c-0.003-0.014-0.007-0.027-0.009-0.041c-0.109-0.659-0.156-1.32-0.164-1.982c-0.003-0.195,0.014-0.391,0.02-0.586
								c0.015-0.461,0.051-0.921,0.114-1.381c0.033-0.237,0.07-0.473,0.116-0.71c0.085-0.441,0.199-0.88,0.329-1.318
								c0.066-0.219,0.118-0.438,0.195-0.656c0.217-0.618,0.471-1.233,0.778-1.84c0.096-0.192,0.221-0.379,0.327-0.57
								c0.241-0.434,0.495-0.866,0.783-1.292c0.171-0.255,0.361-0.505,0.549-0.757c0.139-0.187,0.259-0.378,0.408-0.563
								c0.21-0.236,0.43-0.5,0.656-0.761c0.119-0.134,0.238-0.268,0.362-0.4c8.355-9.61,20.644-12.808,34.384-12.808
								c13.758,0,26.061,3.212,34.417,12.842c0.101,0.108,0.198,0.217,0.296,0.326c0.239,0.275,0.469,0.553,0.69,0.801
								c0.158,0.196,0.285,0.398,0.433,0.596c0.174,0.233,0.349,0.465,0.509,0.701c0.311,0.46,0.587,0.924,0.843,1.392
								c0.088,0.159,0.193,0.316,0.274,0.476c0.313,0.619,0.573,1.245,0.793,1.875c0.067,0.194,0.114,0.389,0.173,0.583
								c0.141,0.466,0.26,0.933,0.35,1.402c0.041,0.215,0.076,0.431,0.106,0.646c0.069,0.489,0.108,0.979,0.122,1.469
								c0.004,0.17,0.019,0.338,0.017,0.508c-0.014,1.341-0.238,2.68-0.664,4.002c-0.045,0.14-0.1,0.278-0.151,0.418
								c-0.192,0.538-0.418,1.073-0.678,1.603c-0.069,0.139-0.134,0.278-0.208,0.417c-0.325,0.617-0.689,1.228-1.109,1.83
								c-0.017,0.025-0.031,0.051-0.049,0.076c-0.467,0.664-0.992,1.316-1.573,1.956c-0.037,0.041-0.08,0.081-0.118,0.122
								c-0.519,0.564-1.088,1.115-1.696,1.657c-0.139,0.124-0.284,0.247-0.427,0.369c-0.558,0.477-1.151,0.942-1.78,1.397
								c-0.153,0.112-0.3,0.225-0.458,0.335c-0.795,0.554-1.624,1.097-2.524,1.615c-15.221,8.8-39.955,8.8-55.176,0
								c-0.893-0.514-1.717-1.052-2.505-1.601c-0.178-0.124-0.344-0.253-0.517-0.379c-0.603-0.439-1.174-0.886-1.712-1.344
								c-0.161-0.137-0.322-0.274-0.478-0.413c-0.582-0.52-1.126-1.049-1.627-1.589c-0.057-0.062-0.122-0.122-0.179-0.184
								c-0.57-0.63-1.087-1.272-1.547-1.924C162.117,357.186,162.087,357.132,162.051,357.079z"/>
						</g>
					</g>
					<g style="opacity:0.8;">
						<g>
							<path style="fill:#FFFFFF;" d="M162.051,357.079c-0.394-0.572-0.742-1.152-1.052-1.737c-0.084-0.159-0.161-0.319-0.239-0.479
								c-0.247-0.506-0.461-1.015-0.645-1.528c-0.058-0.16-0.121-0.319-0.172-0.479c-0.206-0.642-0.375-1.287-0.484-1.935
								c-0.003-0.014-0.007-0.027-0.009-0.041c-0.109-0.659-0.156-1.32-0.164-1.982c-0.003-0.195,0.014-0.391,0.02-0.586
								c0.015-0.461,0.051-0.921,0.114-1.381c0.033-0.237,0.07-0.473,0.116-0.71c0.085-0.441,0.199-0.88,0.329-1.318
								c0.066-0.219,0.118-0.438,0.195-0.656c0.217-0.618,0.471-1.233,0.778-1.84c0.096-0.192,0.221-0.379,0.327-0.57
								c0.241-0.434,0.495-0.866,0.783-1.292c0.171-0.255,0.361-0.505,0.549-0.757c0.139-0.187,0.259-0.378,0.408-0.563
								c0.21-0.236,0.43-0.5,0.656-0.761c0.119-0.134,0.238-0.268,0.362-0.4c8.355-9.61,20.644-12.808,34.384-12.808
								c13.758,0,26.061,3.212,34.417,12.842c0.101,0.108,0.198,0.217,0.296,0.326c0.239,0.275,0.469,0.553,0.69,0.801
								c0.158,0.196,0.285,0.398,0.433,0.596c0.174,0.233,0.349,0.465,0.509,0.701c0.311,0.46,0.587,0.924,0.843,1.392
								c0.088,0.159,0.193,0.316,0.274,0.476c0.313,0.619,0.573,1.245,0.793,1.875c0.067,0.194,0.114,0.389,0.173,0.583
								c0.141,0.466,0.26,0.933,0.35,1.402c0.041,0.215,0.076,0.431,0.106,0.646c0.069,0.489,0.108,0.979,0.122,1.469
								c0.004,0.17,0.019,0.338,0.017,0.508c-0.014,1.341-0.238,2.68-0.664,4.002c-0.045,0.14-0.1,0.278-0.151,0.418
								c-0.192,0.538-0.418,1.073-0.678,1.603c-0.069,0.139-0.134,0.278-0.208,0.417c-0.325,0.617-0.689,1.228-1.109,1.83
								c-0.017,0.025-0.031,0.051-0.049,0.076c-0.467,0.664-0.992,1.316-1.573,1.956c-0.037,0.041-0.08,0.081-0.118,0.122
								c-0.519,0.564-1.088,1.115-1.696,1.657c-0.139,0.124-0.284,0.247-0.427,0.369c-0.558,0.477-1.151,0.942-1.78,1.397
								c-0.153,0.112-0.3,0.225-0.458,0.335c-0.795,0.554-1.624,1.097-2.524,1.615c-15.221,8.8-39.955,8.8-55.176,0
								c-0.893-0.514-1.717-1.052-2.505-1.601c-0.178-0.124-0.344-0.253-0.517-0.379c-0.603-0.439-1.174-0.886-1.712-1.344
								c-0.161-0.137-0.322-0.274-0.478-0.413c-0.582-0.52-1.126-1.049-1.627-1.589c-0.057-0.062-0.122-0.122-0.179-0.184
								c-0.57-0.63-1.087-1.272-1.547-1.924C162.117,357.186,162.087,357.132,162.051,357.079z"/>
						</g>
					</g>
					<path style="opacity:0.3;fill:#FFFFFF;" d="M215.729,338.948v-11.451c-4.609-1.362-9.596-2.039-14.828-2.201v19.422
						l2.441,26.344c8.249-0.617,16.225-2.731,22.553-6.389c0.9-0.518,1.73-1.061,2.524-1.615c0.158-0.11,0.304-0.223,0.457-0.335
						c0.628-0.456,1.222-0.921,1.78-1.397c0.144-0.123,0.288-0.245,0.427-0.369c0.413-0.368,0.801-0.743,1.175-1.121
						L215.729,338.948z"/>
					<path style="opacity:0.15;fill:#BA68C8;" d="M186.974,342.791v-16.669c-9.088,1.491-17.078,5.072-23.052,11.942
						c-0.124,0.133-0.243,0.266-0.362,0.4c-0.226,0.261-0.447,0.525-0.656,0.761c-0.149,0.185-0.269,0.376-0.408,0.563
						c-0.188,0.251-0.378,0.502-0.549,0.757c-0.288,0.427-0.542,0.858-0.783,1.292c-0.106,0.191-0.23,0.378-0.327,0.57
						c-0.307,0.608-0.561,1.222-0.778,1.84c-0.076,0.218-0.129,0.437-0.195,0.656c-0.13,0.438-0.244,0.877-0.329,1.318
						c-0.046,0.236-0.084,0.473-0.117,0.71c-0.064,0.46-0.099,0.92-0.114,1.381c-0.006,0.195-0.022,0.391-0.02,0.586
						c0.008,0.662,0.056,1.323,0.164,1.982c0.002,0.014,0.007,0.027,0.009,0.041c0.108,0.648,0.278,1.293,0.484,1.935
						c0.051,0.161,0.115,0.319,0.172,0.479c0.184,0.513,0.399,1.022,0.645,1.528c0.078,0.16,0.155,0.32,0.239,0.479
						c0.31,0.585,0.658,1.165,1.052,1.736c0.037,0.053,0.066,0.107,0.104,0.16c0.46,0.652,0.977,1.294,1.547,1.924
						c0.056,0.062,0.122,0.122,0.178,0.184c0.501,0.54,1.045,1.069,1.627,1.589c0.155,0.139,0.317,0.275,0.478,0.413
						c0.538,0.458,1.109,0.905,1.712,1.344c0.173,0.126,0.339,0.254,0.517,0.379c0.788,0.549,1.612,1.087,2.505,1.601
						c1.719,0.994,3.573,1.859,5.508,2.629L186.974,342.791z"/>
				</g>
				<g>
					<path style="fill:#BA68C8;" d="M220.053,328.176c0-3.212-2.116-6.424-6.365-8.88c-8.498-4.912-22.273-4.912-30.762,0
						c-3.986,2.303-6.101,5.269-6.348,8.277c-0.008,0.059-0.008,0.11-0.008,0.17c-0.008,0.145-0.008,0.289-0.008,0.433
						s0,6.329,0,6.474c0,0.144,0,0.289,0.008,0.433c0,0.059,0,0.11,0.008,0.17c0.246,3.008,2.362,5.974,6.348,8.277
						c8.489,4.903,22.264,4.903,30.762,0c4.249-2.456,6.365-5.668,6.365-8.88C220.053,333.954,220.053,328.872,220.053,328.176z"/>
					<path style="opacity:0.4;fill:#FFFFFF;" d="M220.053,328.176c0-3.212-2.116-6.424-6.365-8.88
						c-8.498-4.912-22.273-4.912-30.762,0c-3.986,2.303-6.101,5.269-6.348,8.277c-0.008,0.059-0.008,0.11-0.008,0.17
						c-0.008,0.145-0.008,0.289-0.008,0.433s0,6.329,0,6.474c0,0.144,0,0.289,0.008,0.433c0,0.059,0,0.11,0.008,0.17
						c0.246,3.008,2.362,5.974,6.348,8.277c8.489,4.903,22.264,4.903,30.762,0c4.249-2.456,6.365-5.668,6.365-8.88
						C220.053,333.954,220.053,328.872,220.053,328.176z"/>
					<path style="opacity:0.4;fill:#FFFFFF;" d="M201.124,347.088c4.593-0.345,9.035-1.522,12.564-3.559
						c1.428-0.825,2.593-1.714,3.54-2.681v-18.844c-0.947-0.967-2.112-1.883-3.54-2.708c-3.529-2.04-7.971-3.219-12.564-3.565
						V347.088z"/>
					<path style="fill:#BA68C8;" d="M185.999,317.828c-1.079,0.43-2.113,0.913-3.073,1.468c-3.986,2.303-6.101,5.269-6.348,8.277
						c-0.008,0.059-0.008,0.11-0.008,0.17c-0.008,0.145-0.008,0.289-0.008,0.433s0,6.329,0,6.473s0,0.289,0.008,0.433
						c0,0.06,0,0.11,0.008,0.17c0.246,3.008,2.362,5.974,6.348,8.277c0.959,0.554,1.994,1.049,3.073,1.477V317.828z"/>
					<path style="fill:#BA68C8;" d="M220.036,327.573v-0.026c-0.467-8.268-21.729-22.929-21.729-22.929
						s-21.261,14.661-21.729,22.929v0.026c-0.025,0.34-0.034,0.688-0.008,1.037c0,0.06,0,0.11,0.008,0.17
						c0.246,3.008,2.362,5.974,6.348,8.277c8.498,4.903,22.264,4.903,30.762,0c3.985-2.303,6.101-5.269,6.348-8.277
						c0.008-0.059,0.008-0.11,0.008-0.17C220.07,328.261,220.061,327.913,220.036,327.573z"/>
					<path style="opacity:0.8;fill:#FFFFFF;" d="M220.036,327.573v-0.026c-0.467-8.268-21.729-22.929-21.729-22.929
						s-21.261,14.661-21.729,22.929v0.026c-0.025,0.34-0.034,0.688-0.008,1.037c0,0.06,0,0.11,0.008,0.17
						c0.246,3.008,2.362,5.974,6.348,8.277c8.498,4.903,22.264,4.903,30.762,0c3.985-2.303,6.101-5.269,6.348-8.277
						c0.008-0.059,0.008-0.11,0.008-0.17C220.07,328.261,220.061,327.913,220.036,327.573z"/>
					<path style="opacity:0.3;fill:#FFFFFF;" d="M213.688,337.056c1.258-0.727,2.308-1.525,3.193-2.365
						c-0.029-10.256-18.574-30.073-18.574-30.073s2.816,28.223,2.817,35.997C205.717,340.27,210.158,339.093,213.688,337.056z"/>
					<path style="opacity:0.15;fill:#BA68C8;" d="M176.578,327.547v0.026c-0.025,0.34-0.034,0.688-0.008,1.037
						c0,0.059,0,0.11,0.008,0.17c0.246,3.008,2.362,5.974,6.348,8.277c1.055,0.609,2.193,1.142,3.391,1.599
						c0.001-6.859,11.99-34.037,11.99-34.037S177.046,319.279,176.578,327.547z"/>
				</g>
				<g>
					<g>
						<path style="fill:#BA68C8;" d="M272.903,175.097c0-11.023-7.283-22.046-21.85-30.456c-29.133-16.82-76.368-16.82-105.501,0
							c-14.567,8.41-21.85,19.433-21.85,30.456c0,2.203,0,10.972,0,13.175c0,11.023,7.283,22.046,21.85,30.456
							c29.133,16.82,76.368,16.82,105.501,0c14.567-8.41,21.85-19.433,21.85-30.456C272.903,186.069,272.903,177.3,272.903,175.097z
							"/>
						<path style="opacity:0.4;fill:#FFFFFF;" d="M272.903,175.097c0-11.023-7.283-22.046-21.85-30.456
							c-29.133-16.82-76.368-16.82-105.501,0c-14.567,8.41-21.85,19.433-21.85,30.456c0,2.203,0,10.972,0,13.175
							c0,11.023,7.283,22.046,21.85,30.456c29.133,16.82,76.368,16.82,105.501,0c14.567-8.41,21.85-19.433,21.85-30.456
							C272.903,186.069,272.903,177.3,272.903,175.097z"/>
						<path style="opacity:0.4;fill:#FFFFFF;" d="M256.225,147.95v67.469c11.118-7.888,16.679-17.517,16.679-27.147
							c0-2.203,0-10.972,0-13.175C272.903,165.467,267.342,155.838,256.225,147.95z"/>
						<path style="opacity:0.4;fill:#FFFFFF;" d="M198.303,231.342c14.855,0,29.699-2.558,42.422-7.649v-84.018
							c-12.723-5.091-27.567-7.649-42.422-7.649V231.342z"/>
						<path style="fill:#BA68C8;" d="M149.923,142.326c-1.493,0.736-2.96,1.5-4.372,2.315c-14.567,8.41-21.85,19.433-21.85,30.456
							c0,2.203,0,10.972,0,13.175c0,11.023,7.283,22.046,21.85,30.456c1.412,0.815,2.879,1.579,4.371,2.315V142.326z"/>
					</g>
					<g>
						<ellipse style="fill:#BA68C8;" cx="198.302" cy="175.097" rx="74.601" ry="43.071"/>
						<ellipse style="opacity:0.55;fill:#FFFFFF;" cx="198.302" cy="175.097" rx="74.601" ry="43.071"/>
					</g>
					<g>
						<path style="fill:#BA68C8;" d="M265.27,175.093c0,2.215-0.428,4.431-1.238,6.6c-2.384-6.295-8.158-12.268-16.806-17.264
							c-12.94-7.471-30.311-11.596-48.92-11.596c-18.609,0-35.995,4.125-48.935,11.596c-8.647,4.996-14.407,10.954-16.79,17.264
							c-0.81-2.169-1.237-4.385-1.237-6.6c0-8.662,6.402-17.126,18.028-23.833c12.94-7.471,30.327-11.596,48.935-11.596
							c18.609,0,35.98,4.125,48.92,11.596C258.853,157.967,265.27,166.431,265.27,175.093z"/>
						<path style="opacity:0.1;" d="M167.272,143.835c-6.561,1.883-12.607,4.369-17.9,7.425
							c-11.626,6.707-18.028,15.171-18.028,23.833c0,2.215,0.428,4.431,1.237,6.6c2.383-6.31,8.143-12.268,16.79-17.264
							c5.293-3.056,11.34-5.542,17.9-7.425V143.835z"/>
						<path style="opacity:0.2;fill:#FFFFFF;" d="M200.233,152.86c15.87,0.244,30.743,3.494,42.624,9.266v-13.17
							c-11.88-5.772-26.754-9.022-42.624-9.266V152.86z"/>
					</g>
					<g>
						<path style="fill:#BA68C8;" d="M123.702,188.271c0,11.023,7.283,22.046,21.85,30.456c29.133,16.82,76.368,16.82,105.501,0
							c14.567-8.41,21.85-19.433,21.85-30.456c0,69.235-35.209,126.563-74.601,126.563
							C158.911,314.835,123.702,257.506,123.702,188.271L123.702,188.271z"/>
						<path style="opacity:0.8;fill:#FFFFFF;" d="M123.702,188.271c0,11.023,7.283,22.046,21.85,30.456
							c29.133,16.82,76.368,16.82,105.501,0c14.567-8.41,21.85-19.433,21.85-30.456c0,69.235-35.209,126.563-74.601,126.563
							C158.911,314.835,123.702,257.506,123.702,188.271L123.702,188.271z"/>
						<path style="opacity:0.1;fill:#BA68C8;" d="M198.303,314.835c17.472,0,34.113-11.296,47.232-29.89
							c-17.734,23.159-52.231,19.799-66.598-9.955c-4.281-8.866-10.205-28.233-11.665-47.545c-7.869-2.075-15.243-4.978-21.72-8.718
							c-14.567-8.41-21.85-19.433-21.85-30.456v0C123.702,257.506,158.911,314.835,198.303,314.835z"/>
						<path style="opacity:0.15;fill:#BA68C8;" d="M146.724,256.391c-3.262-12.939-4.988-25.938-5.9-40.671
							c-11.407-7.944-17.122-17.694-17.122-27.449v0c0,67.889,33.858,124.292,72.313,126.459
							C174.16,312.87,153.87,284.735,146.724,256.391z"/>
						<path style="opacity:0.3;fill:#FFFFFF;" d="M251.053,218.727c-16.624,9.598-39.141,13.71-60.827,12.354
							c3.628,43.258,15.432,58.232,35.892,47.924c17.071-8.601,25.236-36.542,29.069-62.885
							C253.876,217.011,252.511,217.886,251.053,218.727z"/>
					</g>
					<g>
						<path style="fill:#BA68C8;" d="M264.033,181.693c-2.399,6.279-8.158,12.253-16.806,17.249
							c-12.94,7.471-30.311,11.581-48.92,11.581c-18.609,0-35.995-4.11-48.935-11.581c-8.647-4.996-14.407-10.97-16.79-17.249
							c2.383-6.31,8.143-12.268,16.79-17.264c12.94-7.471,30.327-11.596,48.935-11.596c18.609,0,35.98,4.125,48.92,11.596
							C255.874,169.425,261.649,175.399,264.033,181.693z"/>
						<path style="opacity:0.8;fill:#FFFFFF;" d="M264.033,181.693c-2.399,6.279-8.158,12.253-16.806,17.249
							c-12.94,7.471-30.311,11.581-48.92,11.581c-18.609,0-35.995-4.11-48.935-11.581c-8.647-4.996-14.407-10.97-16.79-17.249
							c2.383-6.31,8.143-12.268,16.79-17.264c12.94-7.471,30.327-11.596,48.935-11.596c18.609,0,35.98,4.125,48.92,11.596
							C255.874,169.425,261.649,175.399,264.033,181.693z"/>
						<path style="opacity:0.1;fill:#BA68C8;" d="M230.565,206.006c6.084-1.834,11.701-4.199,16.662-7.064
							c8.647-4.996,14.407-10.97,16.806-17.249c-2.384-6.295-8.158-12.268-16.806-17.264c-4.013-2.317-8.453-4.31-13.223-5.96
							C234.525,173.399,233.347,189.935,230.565,206.006z"/>
						<path style="opacity:0.15;fill:#BA68C8;" d="M252.156,167.635c-0.389,9.65-1.546,19.978-3.445,30.391
							c7.805-4.805,13.066-10.428,15.322-16.333C262.139,176.692,258.072,171.902,252.156,167.635z"/>
					</g>
				</g>
			</g>
		</g>
	</g>
</g>
<g id="Speech_Bubble">
	<g id="Speech_Bubble_11_">
		<g id="Speech_Bubble_13_">
			<path style="fill:#455A64;" d="M222.557,20.604c-24.148,0-43.795,19.646-43.795,43.796s19.647,43.796,43.795,43.796
				c24.149,0,43.796-19.647,43.796-43.796S246.706,20.604,222.557,20.604z M251.235,91.229l-3.256,3.104
				c-6.859,5.834-15.734,9.365-25.422,9.365c-21.669,0-39.298-17.629-39.298-39.299c0-9.689,3.531-18.564,9.365-25.422l3.104-3.256
				c7.029-6.58,16.464-10.621,26.829-10.621c21.67,0,39.299,17.629,39.299,39.299C261.856,74.765,257.815,84.2,251.235,91.229z"/>
			<path style="fill:#455A64;" d="M220.186,120.259l-5.609-14.474h15.962l-5.609,14.474
				C224.09,122.426,221.025,122.426,220.186,120.259z"/>
		</g>
		<g>
			<g>
				<path style="fill:#BA68C8;" d="M194.028,57.764c-0.25-0.321-0.348-0.677-0.294-1.07c0.053-0.392,0.24-0.713,0.561-0.963
					l11.612-9.151c0.285-0.214,0.58-0.419,0.884-0.615c0.303-0.195,0.633-0.294,0.989-0.294h4.175c0.392,0,0.73,0.143,1.017,0.428
					c0.285,0.286,0.428,0.625,0.428,1.017v34.57c0,0.394-0.143,0.732-0.428,1.018c-0.286,0.285-0.625,0.428-1.017,0.428h-4.335
					c-0.393,0-0.731-0.143-1.017-0.428c-0.286-0.285-0.429-0.624-0.429-1.018V55.249l-7.599,5.939
					c-0.321,0.25-0.669,0.349-1.044,0.295c-0.374-0.054-0.704-0.241-0.989-0.563L194.028,57.764z"/>
				<path style="fill:#BA68C8;" d="M243.368,74.461l-0.803,5.458c-0.071,0.321-0.223,0.589-0.454,0.803
					c-0.232,0.214-0.527,0.321-0.884,0.321H237c-0.32,0-0.598-0.115-0.829-0.348c-0.232-0.232-0.348-0.509-0.348-0.83v-0.106
					l0.803-5.298h-5.405l-0.803,5.458c-0.072,0.321-0.224,0.589-0.455,0.803c-0.232,0.214-0.526,0.321-0.883,0.321h-4.228
					c-0.321,0-0.598-0.115-0.829-0.348c-0.233-0.232-0.349-0.509-0.349-0.83v-0.106l0.803-5.298h-3.585
					c-0.394,0-0.731-0.143-1.017-0.429c-0.286-0.285-0.429-0.624-0.429-1.017v-3.371c0-0.393,0.143-0.731,0.429-1.018
					c0.285-0.285,0.623-0.428,1.017-0.428h4.495l1.124-7.331h-4.228c-0.394,0-0.732-0.143-1.018-0.429
					c-0.285-0.285-0.428-0.624-0.428-1.017v-3.371c0-0.393,0.143-0.731,0.428-1.018c0.285-0.285,0.624-0.428,1.018-0.428h5.137
					l0.856-5.405c0.071-0.285,0.214-0.543,0.428-0.775c0.215-0.231,0.5-0.349,0.856-0.349h4.281c0.321,0,0.598,0.117,0.83,0.349
					c0.231,0.232,0.348,0.508,0.348,0.829v0.16l-0.803,5.191h5.352l0.855-5.405c0.071-0.285,0.215-0.543,0.429-0.775
					c0.214-0.231,0.499-0.349,0.856-0.349h4.281c0.32,0,0.597,0.117,0.829,0.349c0.232,0.232,0.348,0.508,0.348,0.829v0.16
					l-0.803,5.191h3.586c0.392,0,0.73,0.143,1.017,0.428c0.285,0.286,0.428,0.625,0.428,1.018v3.371
					c0,0.393-0.143,0.731-0.428,1.017c-0.286,0.286-0.625,0.429-1.017,0.429h-4.549l-1.07,7.331h4.228
					c0.393,0,0.73,0.143,1.017,0.428c0.285,0.286,0.429,0.625,0.429,1.018v3.371c0,0.392-0.144,0.731-0.429,1.017
					c-0.286,0.286-0.624,0.429-1.017,0.429H243.368z M232.183,68.199h5.352l1.124-7.331h-5.405L232.183,68.199z"/>
			</g>
			<g style="opacity:0.4;">
				<path style="fill:#FFFFFF;" d="M194.028,57.764c-0.25-0.321-0.348-0.677-0.294-1.07c0.053-0.392,0.24-0.713,0.561-0.963
					l11.612-9.151c0.285-0.214,0.58-0.419,0.884-0.615c0.303-0.195,0.633-0.294,0.989-0.294h4.175c0.392,0,0.73,0.143,1.017,0.428
					c0.285,0.286,0.428,0.625,0.428,1.017v34.57c0,0.394-0.143,0.732-0.428,1.018c-0.286,0.285-0.625,0.428-1.017,0.428h-4.335
					c-0.393,0-0.731-0.143-1.017-0.428c-0.286-0.285-0.429-0.624-0.429-1.018V55.249l-7.599,5.939
					c-0.321,0.25-0.669,0.349-1.044,0.295c-0.374-0.054-0.704-0.241-0.989-0.563L194.028,57.764z"/>
				<path style="fill:#FFFFFF;" d="M243.368,74.461l-0.803,5.458c-0.071,0.321-0.223,0.589-0.454,0.803
					c-0.232,0.214-0.527,0.321-0.884,0.321H237c-0.32,0-0.598-0.115-0.829-0.348c-0.232-0.232-0.348-0.509-0.348-0.83v-0.106
					l0.803-5.298h-5.405l-0.803,5.458c-0.072,0.321-0.224,0.589-0.455,0.803c-0.232,0.214-0.526,0.321-0.883,0.321h-4.228
					c-0.321,0-0.598-0.115-0.829-0.348c-0.233-0.232-0.349-0.509-0.349-0.83v-0.106l0.803-5.298h-3.585
					c-0.394,0-0.731-0.143-1.017-0.429c-0.286-0.285-0.429-0.624-0.429-1.017v-3.371c0-0.393,0.143-0.731,0.429-1.018
					c0.285-0.285,0.623-0.428,1.017-0.428h4.495l1.124-7.331h-4.228c-0.394,0-0.732-0.143-1.018-0.429
					c-0.285-0.285-0.428-0.624-0.428-1.017v-3.371c0-0.393,0.143-0.731,0.428-1.018c0.285-0.285,0.624-0.428,1.018-0.428h5.137
					l0.856-5.405c0.071-0.285,0.214-0.543,0.428-0.775c0.215-0.231,0.5-0.349,0.856-0.349h4.281c0.321,0,0.598,0.117,0.83,0.349
					c0.231,0.232,0.348,0.508,0.348,0.829v0.16l-0.803,5.191h5.352l0.855-5.405c0.071-0.285,0.215-0.543,0.429-0.775
					c0.214-0.231,0.499-0.349,0.856-0.349h4.281c0.32,0,0.597,0.117,0.829,0.349c0.232,0.232,0.348,0.508,0.348,0.829v0.16
					l-0.803,5.191h3.586c0.392,0,0.73,0.143,1.017,0.428c0.285,0.286,0.428,0.625,0.428,1.018v3.371
					c0,0.393-0.143,0.731-0.428,1.017c-0.286,0.286-0.625,0.429-1.017,0.429h-4.549l-1.07,7.331h4.228
					c0.393,0,0.73,0.143,1.017,0.428c0.285,0.286,0.429,0.625,0.429,1.018v3.371c0,0.392-0.144,0.731-0.429,1.017
					c-0.286,0.286-0.624,0.429-1.017,0.429H243.368z M232.183,68.199h5.352l1.124-7.331h-5.405L232.183,68.199z"/>
			</g>
		</g>
	</g>
</g>
<g id="Character">
	<g id="Character_4_">
		<g id="Bottom_1_">
			<g id="XMLID_419_">
				<g id="XMLID_420_">
					<g>
						<g id="XMLID_452_">
							<path id="XMLID_457_" style="fill:#B16668;" d="M355.674,381.773c0.202-4.945,3.048-59.567,3.048-59.567l-25.024,18.023
								c3.903,28.502,5.544,41.614,5.822,46.36l0,0c-0.035,0.112-0.121,0.519-0.087,1.221c0.245,5.638,7.06,8.446,12.432,12.023
								c2.122,1.413,8.295,5.588,14.472,8.273c3.866,1.68,11.579,1.576,12.441-0.777c-6.538-4.391-14.094-9.176-19.357-14.267
								C356.909,390.629,355.432,387.707,355.674,381.773z"/>
						</g>
						<g>
							<path style="fill:#263238;" d="M386.396,413.09c0.304-0.011,0.894,3.387-0.704,4.897c-1.845,1.743-7.344,4.694-14.786,3.985
								c-7.442-0.71-11.54-2.896-14.6-5.313c-3.059-2.417-7.348-5.826-10.726-6.458c-3.137-0.587-6.572-1.9-7.604-2.843
								c-1.033-0.943-1.061-5.298-1.061-5.298L386.396,413.09z"/>
							<path id="XMLID_647_" style="fill:#455A64;" d="M339.424,385.211c0,0-0.809-0.009-0.962,1.005
								c-0.182,1.207-0.396,4.72-0.811,6.705c-0.575,2.759-1.033,8.419-0.541,10.633c0.493,2.214,5.625,3.581,8.914,4.721
								c3.359,1.165,7.289,3.671,10.759,6.371c3.591,2.794,11.022,5.461,15.851,5.36c7.372-0.154,12.066-2.358,13.436-5.104
								c1.696-3.398,1.047-5.746-7.572-9.434c-1.632-0.698-7.338-3.791-9.612-5.293c-5.152-3.404-8.537-7.054-11.15-12.85
								c-0.306-0.678-0.627-1.428-1.286-1.756c-0.505-0.25-1.1-0.191-1.652-0.092c-1.403,0.251-5.464,0.914-6.726,1.584
								c-1.115,0.591-2.703,1.29-2.622,2.77c0.028,0.515,0.194,1.012,0.376,1.493c0.113,0.298,0.208,0.698-0.045,0.886
								c-0.239,0.177-0.572-0.003-0.801-0.196c-0.917-0.776-1.606-1.788-2.389-2.705c-0.419-0.491-0.874-0.96-1.393-1.341
								c-0.473-0.346-1.064-0.506-1.487-0.903C339.712,387.063,339.475,385.904,339.424,385.211z"/>
							<path style="fill:#FAFAFA;" d="M378.741,405.462c-10.639,1.129-15.093,8.132-13.743,13.195
								c2.679,0.858,5.429,1.394,7.636,1.348c7.372-0.154,12.369-2.366,13.739-5.112
								C387.972,411.688,386.414,408.111,378.741,405.462z"/>
							<g>
								<g>
									<path style="fill:#F0F0F0;" d="M364.254,407.005c-0.116,0.004-0.234-0.03-0.334-0.108c-0.23-0.177-0.274-0.51-0.102-0.743
										c1.414-1.903,5.603-4.504,9.497-4.214c0.288,0.021,0.505,0.276,0.485,0.567c-0.019,0.291-0.261,0.511-0.556,0.491
										c-3.634-0.261-7.472,2.289-8.594,3.798C364.553,406.927,364.406,406.999,364.254,407.005z"/>
								</g>
								<g>
									<path style="fill:#F0F0F0;" d="M359.952,404.408c-0.116,0.004-0.234-0.03-0.335-0.108c-0.23-0.177-0.275-0.51-0.102-0.743
										c1.416-1.905,5.606-4.512,9.497-4.214c0.288,0.021,0.505,0.276,0.484,0.567c-0.019,0.291-0.257,0.51-0.556,0.49
										c-3.634-0.266-7.472,2.289-8.593,3.798C360.251,404.331,360.103,404.402,359.952,404.408z"/>
								</g>
								<g>
									<path style="fill:#F0F0F0;" d="M355.702,401.084c-0.116,0.004-0.234-0.031-0.334-0.108c-0.23-0.177-0.275-0.51-0.102-0.743
										c1.414-1.904,5.621-4.508,9.497-4.214c0.288,0.021,0.505,0.276,0.484,0.567c-0.019,0.292-0.258,0.509-0.556,0.491
										c-3.629-0.263-7.472,2.289-8.593,3.798C356.001,401.007,355.853,401.079,355.702,401.084z"/>
								</g>
								<g>
									<path style="fill:#F0F0F0;" d="M351.504,397.746c-0.113,0.004-0.229-0.029-0.328-0.103
										c-0.233-0.173-0.283-0.506-0.113-0.741c1.942-2.698,6.494-4.591,10.382-4.299c0.288,0.021,0.505,0.276,0.484,0.567
										c-0.019,0.291-0.26,0.503-0.556,0.49c-3.501-0.26-7.746,1.479-9.47,3.871C351.807,397.667,351.657,397.74,351.504,397.746z
										"/>
								</g>
							</g>
						</g>
					</g>
					<g>
						<g id="XMLID_445_">
							<path id="XMLID_451_" style="fill:#B16668;" d="M312.833,343.087l-24.674-4.997c-0.839,14.931-0.452,39.303-0.428,53.095
								c0.005,2.642-1.743,20.453-1.058,25.943c1.028,8.249,12.073,7.863,13.051,3.03c0.979-4.833,2.059-25.529,2.268-27.673
								c0.039-0.548,0.06-1.202,0.217-1.922C304.941,377.991,312.665,343.804,312.833,343.087z"/>
						</g>
						<g>
							<path style="fill:#263238;" d="M303.575,423.816c-0.161,4.798-0.903,7.993-2.739,10.848
								c-1.836,2.854-5.443,3.822-9.151,3.086c-3.708-0.736-8.494-2.824-9.683-6.932c-1.189-4.107-1.067-6.945-0.374-11.407
								L303.575,423.816z"/>
							<path id="XMLID_427_" style="fill:#455A64;" d="M287.728,389.663c-1.514,0.141-1.674,6.392-2.341,12.853
								c-0.715,6.925-2.959,9.835-3.614,15.514c-0.749,6.489-0.27,9.369,2.424,13.218c2.694,3.85,11.912,7.472,16.212,1.767
								c3.506-4.651,3.493-9.716,2.952-16.166c-0.56-6.667-1.013-11.354-0.867-16.427c0.139-4.849,1.037-9.353-0.298-9.861
								c-0.078,0.714-0.148,1.618-0.233,2.319c-0.065,0.538-0.132,3.163-0.981,3.208c-0.099-0.616-0.102-1.193-0.076-1.824
								c0.023-0.548-0.049-1.144-0.466-1.552c-0.421-0.411-1.757-0.728-2.375-0.82c-1.501-0.226-3.01-0.424-4.531-0.509
								c-0.757-0.042-1.517-0.057-2.275-0.031c-0.615,0.021-1.338,0.083-1.914,0.287c-0.354,0.125-0.678,0.358-0.8,0.676
								c-0.09,0.236-0.064,0.491-0.056,0.74c0.015,0.447-0.035,0.896-0.147,1.332c-0.049,0.192-0.191,0.429-0.41,0.388
								c-0.177-0.033-0.253-0.225-0.26-0.385c-0.031-0.78,0.063-1.35,0.075-2.259c0.005-0.42-0.009-0.818-0.016-1.24
								C287.724,390.475,287.709,390.077,287.728,389.663z"/>
							<path style="fill:#FAFAFA;" d="M281.473,421.786c-0.132,4.021,0.216,6.766,2.326,9.779c2.694,3.85,12.644,7.467,16.945,1.763
								c2.14-2.839,2.631-6.147,2.829-9.514C300.748,419.56,285.591,418.013,281.473,421.786z"/>
							<g>
								<g>
									<path style="fill:#F0F0F0;" d="M299.455,416.873c-0.064-0.004-0.126-0.018-0.188-0.041
										c-0.062-0.024-6.335-2.439-13.122-0.884c-0.3,0.064-0.607-0.091-0.687-0.357c-0.078-0.265,0.102-0.537,0.403-0.605
										c7.179-1.641,13.592,0.834,13.863,0.938c0.284,0.113,0.412,0.406,0.287,0.656
										C299.911,416.777,299.685,416.888,299.455,416.873z"/>
								</g>
								<g>
									<path style="fill:#F0F0F0;" d="M286.357,411.12c-0.213-0.014-0.409-0.135-0.488-0.323
										c-0.107-0.258,0.041-0.543,0.332-0.639c6.735-2.191,13.553,0.701,13.841,0.826c0.28,0.12,0.396,0.417,0.258,0.664
										c-0.137,0.245-0.478,0.342-0.752,0.227c-0.065-0.027-6.688-2.83-12.955-0.784
										C286.516,411.116,286.436,411.125,286.357,411.12z"/>
								</g>
								<g>
									<path style="fill:#F0F0F0;" d="M286.6,406.566c-0.209-0.014-0.401-0.131-0.483-0.314c-0.113-0.257,0.029-0.544,0.318-0.643
										c7.404-2.539,13.847,0.645,14.118,0.781c0.27,0.136,0.365,0.439,0.211,0.677c-0.154,0.238-0.504,0.322-0.767,0.185
										c-0.06-0.031-6.259-3.079-13.15-0.718C286.764,406.562,286.681,406.572,286.6,406.566z"/>
								</g>
								<g>
									<path style="fill:#EBEBEB;" d="M286.896,401.45c-0.206-0.013-0.397-0.128-0.48-0.308c-0.117-0.254,0.02-0.543,0.308-0.646
										c6.935-2.48,13.928,0.775,14.222,0.918c0.274,0.129,0.376,0.431,0.228,0.672c-0.145,0.242-0.486,0.335-0.761,0.2
										c-0.068-0.032-6.825-3.174-13.263-0.87C287.066,401.444,286.98,401.455,286.896,401.45z"/>
								</g>
							</g>
						</g>
					</g>
					<path id="XMLID_421_" style="fill:#37474F;" d="M294.784,227.947c-1.538,28.161-3.916,80.157-3.916,80.157
						c-0.335,3.278-3.335,17.763-3.642,29.588c-0.493,18.987,0.267,36.558,0.267,36.558s10.889,4.65,18.446,1.653
						c0,0,9.963-42.93,12.487-55.297c3.006-14.73,9.402-44.05,9.402-44.05l5.039,38.918c0,0-1.578,13.855,0,25.303
						c1.075,7.799,5.102,33.751,5.102,33.751s10.05,2.148,18.269-0.471c0,0,3.846-55.134,4.333-62.324
						c0.488-7.224,1.877-44.19,0.112-89.552L294.784,227.947z"/>
					<path style="fill:#263238;" d="M356.625,368.958c-4.045,2.958-15.016,2.811-19.612,0.388l1.395,8.168
						c3.294,1.902,12.977,2.275,17.831-1.053L356.625,368.958z"/>
					<path style="fill:#263238;" d="M307.176,371.094c-5.712,2.513-16.514,1.04-19.901-2.136v7.951
						c2.665,2.665,12.942,3.955,18.385,1.914L307.176,371.094z"/>
					<path style="fill:#263238;" d="M327.829,276.556l4.199-25.212c0,0,8.039-0.115,14.118-6.044c0,0-0.654,5.81-11.895,9.535
						l-3.855,20.924l2.472,39.715L327.829,276.556z"/>
				</g>
			</g>
		</g>
		<g id="Top_3_">
			<g>
				<path style="fill:#B16668;" d="M364.769,46.271c-0.006-2.529-0.203-4.756-0.224-7.905c-0.021-3.215,0.58-5.344,2.185-5.608
					c1.477-0.243,2.359,1.935,2.818,6.101c0.734,6.662,1.275,11.448,1.911,11.57c1.808-2.4,2.389-2.995,4.377-1.856
					c1.343,0.769,1.168,2.878,1.168,2.878s1.229-1.426,2.779-0.34c1.55,1.087,1.223,2.708,1.223,2.708s0.964-0.915,2.239,0.297
					c1.103,1.049,1.485,2.336,1.445,3.652l-1.298-0.509c0,0-0.212,0.58-0.799,1.097c-0.587,0.517-1.015,2.042-1.397,3.286
					c-0.381,1.244-0.662,2.745-1.858,3.055c-1.196,0.309-2.144-0.353-2.254-1.129c-0.11-0.776,0.059-1.558,0.059-1.558
					s-0.647,1.831-2.321,1.575c-1.674-0.256-1.668-1.762-1.735-2.733c-0.97,0.395-1.99,0.67-2.532-0.076
					c-0.542-0.747-0.537-3.996-0.537-3.996l-2.699-0.517c0,0-2.409-0.27-2.454-2.059C364.786,50.985,364.776,49.109,364.769,46.271z
					"/>
				<g>
					<path style="fill:#B16668;" d="M384.691,57.767c-0.466,2.53-2.709,11.377-3.393,12.614c-0.82,1.484-1.137,3.057-0.989,7.616
						c0.081,2.476,3.17,32.554,3.17,32.554l-18.963-5.147l2.16-27.721c-0.738-5.137-1.929-7.39-3.643-9.564
						c-2.262-2.87-2.665-4.61-2.463-6.145c0.418-3.163,1.499-7.68,1.981-8.459c0.762-1.231,2.957-1.841,2.957-1.841
						c1.957-0.452,2.747-0.25,2.747-0.25l4.644,3.292c0,0-0.009,1.502-1.1,1.959c-1.091,0.457-1.817,0.255-1.817,0.255
						s-0.109,3.022,0.571,3.632c0.679,0.61,1.197,0.791,2.298-0.15c0.173,1.104,0.379,2.805,1.695,2.988
						c1.316,0.183,2.596-1.394,2.596-1.394s0.273,2.961,1.257,3.009c0.984,0.048,3.398-9.397,3.398-9.397L384.691,57.767z"/>
					<path style="fill:#FAFAFA;" d="M365.127,91.381l0.35-5.808c0,0,2.765,1.572,7.971,1.197c5.206-0.375,7.72-1.608,7.72-1.608
						l0.687,6.346C381.855,91.508,373.315,96.09,365.127,91.381z"/>
					<path style="fill:#9A4A4D;" d="M365.052,58.337c0,0,2.664,1.027,5.172,3.23c2.976,2.613,4.64,6.185,4.64,6.185
						c-0.485-2.447-1.741-4.48-3.133-6.079c0.323-0.028,0.656-0.14,0.983-0.379c0,1.394,0.23,2.712,1.985,2.73
						c1.082,0.011,1.608-0.371,2.038-0.939c0.02,0.739,0.215,1.416,1.059,1.859c0.754,0.395,1.796,0.25,2.281-0.487
						c0.097-0.147,0.181-0.302,0.251-0.464c0.012-0.027,0.023-0.056,0.023-0.086c0-0.013-0.006-0.028-0.051-0.028
						c-0.066,0.061-0.131,0.122-0.197,0.184c-0.392,0.366-1.206,0.814-1.759,0.601c-0.466-0.179-0.684-0.728-0.806-1.17
						c-0.198-0.721-0.018-1.543,0.036-2.282c0.002-0.031,0.004-0.065-0.014-0.09c-0.046-0.066-0.149-0.011-0.203,0.05
						c-0.304,0.339-0.511,0.752-0.791,1.111c-0.394,0.505-0.918,0.755-1.557,0.745c-1.251-0.019-1.553-1.552-1.517-2.558
						c0.012-0.333,0.044-0.665,0.043-0.999c0-0.047-0.018-0.11-0.064-0.107c-0.015,0.001-0.028,0.009-0.04,0.018
						c-0.183,0.125-0.294,0.314-0.411,0.497c-0.13,0.201-0.285,0.374-0.459,0.538c-0.22,0.208-0.485,0.384-0.784,0.433
						c-0.663,0.108-0.941-0.497-1.168-1.008c-0.373-0.841-0.487-1.765-0.391-2.677c0.003-0.028-0.002-0.056,0-0.084
						c0.083,0.011,0.153,0.021,0.24,0.033c2.415,0.325,3.257-2.042,2.485-2.654c-0.772-0.611-4.046-3.093-4.876-3.221
						c-0.603-0.093-0.966,0.015-2.559,0.435l2.436-0.111c0,0,4.695,3.042,4.64,3.585c-0.058,0.567-0.566,1.418-1.818,1.45
						c-1.252,0.032-3.534-0.68-3.534-0.68C367.138,56.868,365.052,58.337,365.052,58.337z M366.528,57.467
						c0.52-0.211,0.828-0.856,0.828-0.856s0.565,0.145,2.423,0.409c-0.209,0.373-0.307,0.798-0.468,1.195
						c-0.089,0.219-0.207,0.433-0.366,0.61c-0.047,0.053-0.104,0.082-0.158,0.118C367.5,57.97,366.528,57.467,366.528,57.467z"/>
					<path style="fill:#BA68C8;" d="M344.001,141.346c2.803-3.31,4.449-4.914,7.709-7.97c3.286-3.081,10.73-18.191,10.73-18.191
						l2.319-26.143c2.54,2.635,12.971,2.331,17.035,0.105c0,0,1.313,7.462,2.601,22.191c0.601,6.876,0.709,7.991-3.922,18.31
						c-3.072,6.846-5.401,10.975-9.788,20.156c-3.856,8.07-10.398,21.152-11.607,26.857c-0.325,1.532-0.321,3.596-2.416,3.638
						c-3.225,0.064-6.133-10.608-8.386-15.162C343.995,156.483,343.491,145.307,344.001,141.346z"/>
					<path style="opacity:0.2;" d="M344.001,141.346c2.803-3.31,4.449-4.914,7.709-7.97c3.286-3.081,10.73-18.191,10.73-18.191
						l2.319-26.143c2.54,2.635,12.971,2.331,17.035,0.105c0,0,1.313,7.462,2.601,22.191c0.601,6.876,0.709,7.991-3.922,18.31
						c-3.072,6.846-5.401,10.975-9.788,20.156c-3.856,8.07-10.398,21.152-11.607,26.857c-0.325,1.532-0.321,3.596-2.416,3.638
						c-3.225,0.064-6.133-10.608-8.386-15.162C343.995,156.483,343.491,145.307,344.001,141.346z"/>
				</g>
			</g>
			<path id="Chest_3_" style="fill:#BA68C8;" d="M314.824,142.224c-10.287,2.294-13.372,3.288-18.238,4.414
				c0,0-9.056,25.503-4.699,43.28c1.003,4.09,3.294,17.237,3.288,24.747c-0.006,7.174-0.084,9.513-0.847,19.7
				c0,0,13.759,9.597,42.53,6.668c22.589-2.3,24.167-10.25,24.167-10.25s-1.249-31.095-1.78-47.705
				c-0.539-16.842-2.884-30.599-8.06-38.475c-1.755-2.671-4.996-3.922-8.134-3.316c-4.474,0.865-9.034,1.253-9.034,1.253
				L314.824,142.224z"/>
			<g>
				<path style="fill:#B16668;" d="M266.403,198.877c-1.714,5.626-1.459,8.009,0.38,13.616c1.151,3.51,2.277,7.029,3.394,10.55
					c1.483,4.676,4.044,12.484,4.52,14.322c0.539,2.085,0.906,3.708,0.701,5.828c-0.195,2.022-0.519,4.012-0.368,6.065
					c0.247,3.355,0.493,4.775,1.258,7.108c0.522,1.592,0.806,3.309,1.431,4.855c0.437,1.082,1.392,2.036,2.04,2.99
					c0.748,1.102,0.952,2.457,1.895,3.452c1.653,1.743,3.48,2.092,5.099,2.958c0.658,1.086,1.731,3.356,2.477,4.379
					c1.906,2.613,2.642-1.425,2.658-2.806c0.016-1.442-0.252-3.009-0.561-4.421c-0.802-3.671-1.457-7.298-1.846-11.036
					c-0.068-0.656-0.689-3.398,0.402-3.324c0.356,0.025,0.641,0.298,0.865,0.576c0.704,0.876,1.129,1.939,1.738,2.883
					c0.477,0.74,1.063,1.403,1.647,2.064c0.499,0.564,1.016,1.142,1.692,1.475c0.687,0.338,3.272,0.696,3.461-0.488
					c0.03-0.191-0.036-0.383-0.101-0.565c-0.455-1.264-1.024-2.486-1.482-3.747c-0.397-1.094-1.032-2.704-1.273-3.833
					c-0.87-4.084-1.728-7.452-3.958-10.903c-4.018-6.217-7.337-35.496-7.337-35.496l8.036-22.843c0,0,6.672-9.171,7.029-20.694
					c0.356-11.522-3.836-14.855-3.836-14.855c-9.704,1.601-14.397,4.386-17.314,12.444
					C276.129,167.489,268.141,193.17,266.403,198.877z"/>
				<path style="fill:#FAFAFA;" d="M287.824,223.361l1.222,6.225c0,0-2.497-0.671-8.723,1.56c-4.523,1.621-6.618,3.324-6.618,3.324
					l-2.019-6.29L287.824,223.361z"/>
				<g>
					<path style="fill:#BA68C8;" d="M264.702,202.775c0.397-2.114,3.331-14.379,8.153-29.438c4.821-15.059,5.877-16.22,9.526-20.631
						c3.649-4.412,9.484-5.152,14.248-6.086c0,0,3.846,3.098,4.039,13.316c0.246,13.024-6.131,22.225-6.131,22.225l-9.113,23.211
						l2.818,19.676c-5.887,0.03-11.149,2.085-15.764,6.099l-5.545-16.008C264.062,206.246,264.305,204.889,264.702,202.775z"/>
					<path style="opacity:0.2;" d="M264.702,202.775c0.397-2.114,3.331-14.379,8.153-29.438c4.821-15.059,5.877-16.22,9.526-20.631
						c3.649-4.412,9.484-5.152,14.248-6.086c0,0,3.846,3.098,4.039,13.316c0.246,13.024-6.131,22.225-6.131,22.225l-9.113,23.211
						l2.818,19.676c-5.887,0.03-11.149,2.085-15.764,6.099l-5.545-16.008C264.062,206.246,264.305,204.889,264.702,202.775z"/>
				</g>
			</g>
			<g>
				<path style="fill:#FAFAFA;" d="M334.2,141.482c0,0,6.925,6.008,4.767,11.798c-2.158,5.79-11.977,6.976-19.753,1.669
					c-7.776-5.307-7.228-11.693-7.228-11.693l2.872-0.949c0,0,0.429,2.441,1.664,3.864c1.235,1.423,15.558,7.09,15.899,8.823
					c0,0,2.114-4.231,2.733-5.818c0.618-1.588-2.633-7.914-2.633-7.914L334.2,141.482z"/>
				<g id="XMLID_529_">
					<g id="XMLID_548_">
						<path style="fill:#263238;" d="M344.798,105.809c1.986-5.67-0.902-12.777-4.017-15.983c-4.505-4.637-11.1-6.289-20.758-4.964
							c-7.343,1.007-14.372,4.613-15.189,12.288c-5.799,2.211-4.397,11.899-2.602,16.085c3.643,8.495,10.094,15.643,10.527,20.093
							L344.798,105.809z"/>
						<g>
							<path style="fill:#B16668;" d="M346.323,126.318c-0.852,4.295-3.06,7.562-6.905,8.46c-2.299,0.542-6.144,0.491-6.144,0.491
								l-0.001,7.485c2.862,3.463,1.462,7.877-0.853,12.241c-4.028-4.837-15.492-6.743-20.18-12.545l-0.385-17.295
								c0,0-2.181,2.882-6.299,0.618c-2.822-1.564-5.094-5.962-3.446-10.289c1.637-4.252,5.662-2.843,6.956-1.687
								c1.285,1.157,2.863,3.401,3.837,2.998c1.482-0.62,1.915-1.611,2.232-2.646c0.566-1.813,0.897-4.123,0.679-8.053
								c1.044-0.633,1.757-1.287,2.6-2.364c1.535-1.982,1.507-4.225,1.428-6.253c8.215-3.261,19.016-2.988,22.715-0.543
								c2.276,3.393,2.964,11.629,3.65,16.349C346.95,118.409,347.039,122.724,346.323,126.318z"/>
						</g>
						<path style="fill:#9A4A4D;" d="M333.273,135.266c-4.323,0.078-13.13-1.286-15.616-3.518c-2.486-2.232-3.832-7.073-3.832-7.073
							s0.579,5.191,2.565,7.797c1.986,2.606,6.811,3.976,9.595,4.452c2.785,0.476,7.287,0.684,7.287,0.684V135.266z"/>
					</g>
					<g id="XMLID_533_">
						<path id="XMLID_547_" style="fill:#263238;" d="M328.823,111.688c0.079,1.019-0.652,1.905-1.634,1.979
							c-0.981,0.074-1.841-0.693-1.92-1.713c-0.079-1.019,0.652-1.905,1.634-1.979C327.884,109.902,328.743,110.669,328.823,111.688
							z"/>
						<path id="XMLID_537_" style="fill:#263238;" d="M342.612,106.916l-4.132-1.474c0.367-1.165,1.59-1.78,2.731-1.373
							C342.352,104.476,342.979,105.751,342.612,106.916z"/>
						<path id="XMLID_536_" style="fill:#263238;" d="M326.578,107.057l-3.327,2.859c-0.831-0.896-0.759-2.263,0.16-3.052
							C324.33,106.075,325.747,106.161,326.578,107.057z"/>
						<path id="XMLID_535_" style="fill:#263238;" d="M342.375,109.838c0.079,1.019-0.652,1.905-1.633,1.978
							c-0.981,0.073-1.841-0.693-1.92-1.713c-0.079-1.019,0.652-1.905,1.633-1.978C341.437,108.052,342.296,108.818,342.375,109.838
							z"/>
						<polygon id="XMLID_534_" style="fill:#9A4A4D;" points="332.757,107.331 334.993,120.011 341.694,117.431 						"/>
						<g>
							<path style="fill:#9A4A4D;" d="M328.125,122.42c-0.443,1.997,0.816,3.975,2.813,4.419c1.997,0.443,3.975-0.816,4.419-2.814
								L328.125,122.42z"/>
							<path style="fill:#F28F8F;" d="M329.051,124.277c1.779-0.317,3.472,0.736,4.032,2.398c-0.66,0.257-1.401,0.33-2.145,0.165
								c-1.272-0.282-2.239-1.189-2.663-2.325C328.521,124.41,328.777,124.326,329.051,124.277z"/>
						</g>
					</g>
				</g>
				<g>
					<path style="fill:#EBEBEB;" d="M332.42,154.995c-2.22-1.279-6.62-4.123-8.703-1.327c-2.144,2.879-3.564,6.013-5.161,5.585
						c-1.597-0.429-7.531-4.326-9.633-8.52c-1.695-3.382-1.745-6.643-1.745-6.643s2.009-2.954,2.97-4.975
						c0.85-1.788,0.571-2.642,1.955-2.773l0.099,4.439c0,0,2.872,3.116,5.571,4.928C321.713,148.353,329.437,148.921,332.42,154.995
						z"/>
					<path style="fill:#EBEBEB;" d="M332.42,154.995c1.271-1.214,2.136-3.296,4.278-2.743c2.137,0.552,5.298,5.316,5.332,4.181
						c0.034-1.135-1.543-9.192-3.213-11.548c-1.671-2.357-4.094-6.854-5.544-6.733v4.602c0,0,1.636,3.477,1.392,5.399
						C334.421,150.074,332.642,153.13,332.42,154.995z"/>
				</g>
			</g>
		</g>
	</g>
</g>
<g id="Icons">
	<g id="Gears_1_">
		<path id="Gear_7_" style="fill:#F0F0F0;" d="M454.269,220.094l-0.015-4.289c-0.002-0.634-0.464-1.195-1.031-1.252l-4.147-0.421
			c-0.567-0.058-1.175-0.68-1.441-1.398c-0.171-0.462-0.364-0.913-0.577-1.353c-0.347-0.716-0.446-1.588-0.138-1.966l2.772-3.401
			c0.309-0.379,0.094-1.136-0.48-1.692l-2.707-2.619c-0.574-0.556-1.344-0.765-1.719-0.468l-3.495,2.764
			c-0.375,0.297-1.183,0.248-1.801-0.041c-0.591-0.276-1.201-0.518-1.829-0.723c-0.605-0.197-1.15-0.856-1.228-1.527l-0.419-3.618
			c-0.078-0.671-0.582-1.212-1.126-1.209l-4.775,0.025c-0.544,0.003-1.038,0.486-1.103,1.081l-0.425,3.904
			c-0.065,0.594-0.512,1.176-0.983,1.327c-0.83,0.267-1.63,0.598-2.395,0.988c-0.43,0.219-1.257,0.036-1.862-0.434l-2.688-2.085
			c-0.606-0.47-1.375-0.577-1.718-0.239l-3.512,3.458c-0.343,0.338-0.198,1.122,0.323,1.751l2.032,2.451
			c0.522,0.629,0.733,1.489,0.497,1.944c-0.364,0.701-0.675,1.433-0.929,2.19c-0.172,0.513-0.706,0.999-1.226,1.057l-4.315,0.485
			c-0.52,0.058-0.939,0.62-0.937,1.254l0.014,4.289c0.002,0.634,0.464,1.195,1.031,1.253l4.147,0.421
			c0.567,0.058,1.175,0.679,1.441,1.398c0.171,0.462,0.364,0.913,0.577,1.353c0.347,0.716,0.446,1.588,0.138,1.967l-2.772,3.401
			c-0.309,0.379-0.094,1.136,0.481,1.692l2.707,2.619c0.574,0.556,1.344,0.765,1.719,0.469l3.496-2.764
			c0.375-0.297,1.183-0.248,1.801,0.041c0.591,0.276,1.201,0.518,1.829,0.722c0.605,0.197,1.15,0.856,1.228,1.527l0.419,3.619
			c0.078,0.671,0.582,1.212,1.126,1.21l4.775-0.026c0.544-0.003,1.038-0.487,1.103-1.081l0.425-3.905
			c0.065-0.594,0.512-1.175,0.984-1.327c0.831-0.267,1.631-0.598,2.395-0.988c0.43-0.219,1.257-0.035,1.862,0.434l2.688,2.085
			c0.605,0.47,1.375,0.577,1.718,0.239l3.512-3.458c0.343-0.338,0.198-1.122-0.323-1.751l-2.033-2.452
			c-0.522-0.629-0.733-1.489-0.497-1.944c0.364-0.701,0.675-1.433,0.929-2.189c0.172-0.513,0.706-0.999,1.225-1.057l4.315-0.485
			C453.852,221.289,454.271,220.728,454.269,220.094z M432.602,227.213c-5.175,0.028-9.385-4.046-9.402-9.098
			c-0.017-5.052,4.165-9.17,9.34-9.197c5.175-0.028,9.384,4.045,9.402,9.097C441.959,223.067,437.777,227.185,432.602,227.213z"/>
		<path id="Gear_9_" style="fill:#F5F5F5;" d="M479.065,198.91l-0.009-2.754c-0.001-0.407-0.298-0.767-0.662-0.804l-2.663-0.271
			c-0.364-0.037-0.754-0.436-0.926-0.898c-0.11-0.297-0.234-0.587-0.371-0.869c-0.223-0.46-0.287-1.02-0.089-1.263l1.78-2.184
			c0.198-0.243,0.06-0.73-0.309-1.086l-1.738-1.682c-0.369-0.357-0.863-0.491-1.104-0.301l-2.245,1.775
			c-0.241,0.191-0.76,0.159-1.156-0.026c-0.379-0.177-0.771-0.333-1.175-0.464c-0.389-0.127-0.738-0.549-0.788-0.98l-0.269-2.323
			c-0.05-0.431-0.374-0.778-0.723-0.777l-3.066,0.016c-0.35,0.002-0.667,0.312-0.708,0.694l-0.273,2.507
			c-0.042,0.381-0.329,0.755-0.632,0.852c-0.533,0.171-1.047,0.384-1.538,0.635c-0.276,0.14-0.807,0.023-1.196-0.279l-1.726-1.339
			c-0.389-0.302-0.883-0.37-1.103-0.153l-2.255,2.22c-0.22,0.217-0.127,0.721,0.208,1.125l1.305,1.574
			c0.335,0.404,0.471,0.956,0.319,1.249c-0.234,0.45-0.434,0.92-0.596,1.406c-0.111,0.33-0.453,0.641-0.787,0.679l-2.771,0.311
			c-0.334,0.037-0.603,0.398-0.602,0.805l0.009,2.754c0.001,0.407,0.298,0.767,0.662,0.804l2.663,0.271
			c0.364,0.037,0.755,0.436,0.926,0.898c0.11,0.296,0.234,0.586,0.37,0.869c0.223,0.46,0.287,1.02,0.088,1.263l-1.78,2.184
			c-0.198,0.243-0.06,0.729,0.309,1.086l1.738,1.682c0.369,0.357,0.863,0.491,1.104,0.301l2.245-1.775
			c0.241-0.191,0.76-0.159,1.157,0.026c0.379,0.177,0.771,0.333,1.175,0.464c0.389,0.127,0.738,0.549,0.788,0.98l0.269,2.324
			c0.05,0.431,0.374,0.778,0.723,0.777l3.066-0.016c0.349-0.002,0.666-0.313,0.708-0.694l0.273-2.507
			c0.042-0.381,0.329-0.755,0.632-0.852c0.533-0.171,1.047-0.384,1.538-0.634c0.276-0.141,0.807-0.023,1.196,0.279l1.726,1.339
			c0.389,0.302,0.883,0.37,1.103,0.153l2.255-2.22c0.22-0.217,0.127-0.721-0.208-1.125l-1.305-1.574
			c-0.335-0.404-0.471-0.956-0.319-1.248c0.234-0.45,0.434-0.92,0.596-1.406c0.111-0.33,0.453-0.641,0.787-0.679l2.771-0.312
			C478.797,199.677,479.067,199.317,479.065,198.91z M465.152,203.481c-3.323,0.018-6.027-2.598-6.038-5.842
			c-0.011-3.244,2.674-5.888,5.998-5.906c3.323-0.018,6.026,2.597,6.037,5.842C471.16,200.819,468.475,203.463,465.152,203.481z"/>
	</g>
	<g id="Gears_4_">
		<path id="Gear_13_" style="fill:#F0F0F0;" d="M134.455,37.146l-3.602,2.328c-0.533,0.344-0.755,1.035-0.497,1.544l1.885,3.718
			c0.258,0.509,0.062,1.356-0.398,1.968c-0.296,0.393-0.572,0.8-0.827,1.217c-0.415,0.678-1.095,1.233-1.581,1.178l-4.359-0.497
			c-0.485-0.055-1.007,0.535-1.164,1.318l-0.743,3.693c-0.158,0.783,0.081,1.544,0.534,1.7l4.214,1.45
			c0.452,0.156,0.848,0.862,0.938,1.538c0.087,0.646,0.213,1.291,0.38,1.93c0.161,0.616-0.099,1.43-0.622,1.858l-2.819,2.306
			c-0.523,0.428-0.706,1.144-0.41,1.601l2.6,4.006c0.296,0.457,0.97,0.611,1.505,0.345l3.516-1.75
			c0.535-0.266,1.266-0.204,1.648,0.111c0.673,0.555,1.384,1.049,2.125,1.482c0.416,0.244,0.709,1.039,0.64,1.802l-0.304,3.388
			c-0.069,0.763,0.257,1.468,0.726,1.575l4.807,1.089c0.47,0.107,1.052-0.439,1.3-1.218l0.966-3.034
			c0.248-0.779,0.858-1.421,1.368-1.468c0.787-0.073,1.571-0.205,2.345-0.401c0.525-0.132,1.222,0.055,1.552,0.461l2.738,3.37
			c0.33,0.406,1.029,0.456,1.561,0.112l3.602-2.328c0.533-0.344,0.755-1.036,0.498-1.544l-1.884-3.718
			c-0.258-0.509-0.063-1.356,0.398-1.968c0.296-0.393,0.572-0.799,0.827-1.216c0.415-0.678,1.096-1.233,1.581-1.178l4.359,0.497
			c0.485,0.055,1.007-0.535,1.164-1.318l0.743-3.692c0.158-0.783-0.081-1.544-0.534-1.7l-4.214-1.45
			c-0.453-0.156-0.847-0.862-0.938-1.538c-0.087-0.646-0.213-1.291-0.38-1.93c-0.161-0.616,0.1-1.43,0.622-1.858l2.82-2.306
			c0.523-0.428,0.706-1.144,0.41-1.601l-2.6-4.005c-0.296-0.457-0.97-0.611-1.505-0.345l-3.516,1.75
			c-0.535,0.266-1.266,0.203-1.648-0.111c-0.673-0.555-1.384-1.05-2.125-1.482c-0.417-0.244-0.708-1.039-0.64-1.802l0.304-3.388
			c0.068-0.763-0.257-1.468-0.726-1.575l-4.807-1.089c-0.47-0.106-1.052,0.439-1.299,1.218l-0.966,3.034
			c-0.248,0.779-0.857,1.421-1.368,1.468c-0.787,0.072-1.571,0.205-2.344,0.4c-0.525,0.132-1.222-0.055-1.551-0.461l-2.738-3.37
			C135.687,36.852,134.988,36.802,134.455,37.146z M152.146,51.54c2.818,4.341,1.662,10.084-2.581,12.826
			c-4.243,2.742-9.967,1.445-12.784-2.896c-2.818-4.341-1.662-10.083,2.581-12.825C143.604,45.903,149.328,47.199,152.146,51.54z"/>
		<path id="Gear_10_" style="fill:#F5F5F5;" d="M103.236,27.713l-2.313,1.495c-0.342,0.221-0.485,0.665-0.319,0.991l1.21,2.388
			c0.166,0.327,0.04,0.871-0.256,1.264c-0.19,0.253-0.367,0.514-0.531,0.781c-0.267,0.436-0.703,0.792-1.015,0.756l-2.799-0.319
			c-0.312-0.036-0.646,0.343-0.748,0.846l-0.477,2.371c-0.101,0.503,0.052,0.992,0.343,1.092l2.706,0.931
			c0.291,0.1,0.544,0.554,0.602,0.988c0.056,0.415,0.137,0.829,0.244,1.239c0.103,0.396-0.064,0.918-0.399,1.193l-1.811,1.481
			c-0.336,0.275-0.453,0.735-0.263,1.028l1.669,2.572c0.19,0.293,0.623,0.392,0.966,0.221l2.258-1.124
			c0.343-0.171,0.813-0.131,1.058,0.072c0.432,0.356,0.889,0.674,1.364,0.952c0.267,0.157,0.455,0.667,0.411,1.157l-0.195,2.176
			c-0.044,0.49,0.165,0.943,0.466,1.011l3.087,0.699c0.302,0.069,0.675-0.282,0.835-0.782l0.62-1.948
			c0.159-0.5,0.551-0.913,0.879-0.943c0.505-0.047,1.009-0.132,1.506-0.257c0.337-0.085,0.785,0.035,0.996,0.296l1.758,2.164
			c0.212,0.261,0.661,0.293,1.003,0.072l2.313-1.495c0.342-0.221,0.485-0.665,0.32-0.992l-1.21-2.388
			c-0.166-0.327-0.04-0.871,0.256-1.264c0.19-0.252,0.367-0.513,0.531-0.781c0.267-0.436,0.703-0.792,1.015-0.756l2.799,0.319
			c0.312,0.035,0.646-0.343,0.748-0.846l0.477-2.371c0.101-0.503-0.052-0.992-0.343-1.092l-2.706-0.931
			c-0.291-0.1-0.544-0.554-0.602-0.988c-0.056-0.415-0.137-0.829-0.244-1.239c-0.103-0.396,0.064-0.918,0.4-1.193l1.811-1.481
			c0.336-0.275,0.453-0.735,0.263-1.028l-1.669-2.572c-0.19-0.293-0.623-0.392-0.966-0.221l-2.258,1.124
			c-0.343,0.171-0.813,0.131-1.058-0.072c-0.432-0.356-0.889-0.674-1.365-0.952c-0.268-0.156-0.455-0.667-0.411-1.157l0.195-2.176
			c0.044-0.49-0.165-0.943-0.466-1.011l-3.087-0.699c-0.302-0.068-0.675,0.282-0.835,0.782l-0.62,1.948
			c-0.159,0.5-0.551,0.913-0.879,0.943c-0.505,0.047-1.008,0.132-1.506,0.257c-0.337,0.085-0.784-0.035-0.996-0.296l-1.758-2.164
			C104.027,27.524,103.578,27.492,103.236,27.713z M114.596,36.956c1.809,2.788,1.067,6.475-1.658,8.236
			c-2.725,1.761-6.4,0.928-8.21-1.86c-1.809-2.788-1.068-6.475,1.657-8.236C109.111,33.336,112.787,34.168,114.596,36.956z"/>
	</g>
	<g id="Stars">
		<path style="fill:#F5F5F5;" d="M414.647,26.034l6.999,5.573l8.559-2.607c0.893-0.272,1.711,0.598,1.384,1.473l-3.137,8.379
			l5.124,7.335c0.535,0.766-0.04,1.812-0.973,1.771l-8.939-0.394l-5.392,7.14c-0.563,0.745-1.736,0.522-1.985-0.379l-2.387-8.623
			l-8.457-2.922c-0.883-0.305-1.033-1.49-0.254-2.005l7.463-4.935l0.166-8.946C412.835,25.961,413.916,25.453,414.647,26.034z"/>
		<path style="fill:#F0F0F0;" d="M453.638,47.268l-0.609,4.922l3.71,3.292c0.387,0.344,0.212,0.982-0.296,1.081l-4.87,0.942
			l-1.984,4.546c-0.207,0.475-0.868,0.506-1.119,0.052l-2.401-4.34l-4.936-0.483c-0.515-0.05-0.749-0.67-0.396-1.048l3.386-3.625
			l-1.066-4.844c-0.111-0.506,0.405-0.919,0.875-0.7l4.493,2.1l4.277-2.511C453.149,46.39,453.702,46.754,453.638,47.268z"/>
		<path style="fill:#F0F0F0;" d="M277.585,111.314l-0.609,4.922l3.71,3.292c0.387,0.344,0.212,0.982-0.296,1.081l-4.87,0.942
			l-1.984,4.546c-0.207,0.475-0.868,0.506-1.119,0.052l-2.401-4.34l-4.936-0.483c-0.515-0.05-0.749-0.67-0.396-1.048l3.386-3.625
			l-1.066-4.844c-0.111-0.506,0.405-0.92,0.875-0.7l4.493,2.1l4.277-2.511C277.096,110.436,277.649,110.8,277.585,111.314z"/>
	</g>
	<g id="Stars_1_">
		<path style="fill:#F0F0F0;" d="M55.133,187.157l-9.989-0.12l-5.762,8.161c-0.601,0.852-1.919,0.644-2.229-0.351l-2.972-9.537
			l-9.542-2.958c-0.996-0.309-1.206-1.626-0.355-2.229l8.152-5.774l-0.135-9.989c-0.014-1.043,1.174-1.649,2.01-1.026l8.011,5.969
			l9.458-3.215c0.987-0.336,1.931,0.607,1.597,1.594l-3.201,9.463l5.981,8.002C56.781,185.981,56.176,187.169,55.133,187.157z"/>
		<path style="fill:#F5F5F5;" d="M62.675,166.583l1.166-5.414l-3.799-4.03c-0.396-0.421-0.139-1.113,0.437-1.172l5.509-0.564
			l2.659-4.858c0.278-0.507,1.016-0.476,1.25,0.053l2.239,5.065l5.442,1.027c0.568,0.107,0.766,0.819,0.336,1.205l-4.126,3.695
			l0.704,5.493c0.074,0.573-0.542,0.982-1.042,0.692l-4.788-2.782l-5.006,2.368C63.132,167.608,62.553,167.148,62.675,166.583z"/>
		<path style="fill:#F5F5F5;" d="M34.09,217.923l3.344-4.414l-1.74-5.257c-0.182-0.549,0.345-1.068,0.891-0.878l5.232,1.816
			l4.462-3.28c0.466-0.342,1.122-0.002,1.11,0.576l-0.111,5.537l4.498,3.23c0.469,0.337,0.349,1.066-0.205,1.234l-5.3,1.605
			l-1.682,5.276c-0.176,0.551-0.907,0.661-1.237,0.187l-3.165-4.545l-5.538,0.031C34.072,219.045,33.741,218.384,34.09,217.923z"/>
	</g>
</g>
<g id="Bubbles_4_">
	<g id="Bubble_8_">
		<g>
			<path style="fill:#455A64;" d="M150.81,125.955c0,1.33-1.078,2.408-2.408,2.408c-1.33,0-2.408-1.078-2.408-2.408
				c0-1.33,1.078-2.408,2.408-2.408C149.732,123.547,150.81,124.625,150.81,125.955z"/>
			<g>
				<polygon style="fill:#455A64;" points="148.002,126.256 123.453,93.709 64.194,93.709 64.194,92.709 123.951,92.709 
					124.101,92.908 148.801,125.654 				"/>
			</g>
		</g>
		<g>
			<ellipse style="fill:#FFFFFF;" cx="64.195" cy="93.209" rx="35.688" ry="35.954"/>
			<path style="fill:#BA68C8;" d="M64.194,130.12c-20.207,0-36.646-16.559-36.646-36.911c0-20.354,16.439-36.912,36.646-36.912
				c20.207,0,36.646,16.559,36.646,36.912C100.841,113.562,84.401,130.12,64.194,130.12z M64.194,58.213
				c-19.15,0-34.73,15.699-34.73,34.996s15.58,34.995,34.73,34.995c19.15,0,34.73-15.698,34.73-34.995S83.344,58.213,64.194,58.213z
				"/>
		</g>
		<g id="Idea_2_">
			<g>
				<path style="fill:#BA68C8;" d="M59.524,115.252c0,0.487,0.395,0.881,0.881,0.881h7.625c0.487,0,0.881-0.395,0.881-0.881v-3.39
					h-9.387V115.252z M71.037,92.359c-0.377,0.07-0.964,0.587-1.568,1.691c0.797,0.044,1.437-0.201,1.805-0.587
					c0.105-0.123,0.438-0.517,0.166-0.894C71.282,92.35,71.15,92.341,71.037,92.359z M57.397,92.254
					c-0.026,0-0.053-0.009-0.079-0.009c-0.096,0-0.201,0.044-0.324,0.21c-0.28,0.377,0.044,0.78,0.149,0.894
					c0.359,0.394,0.99,0.657,1.796,0.622C58.352,92.858,57.774,92.333,57.397,92.254z M64.198,79.152
					c-7.471,0-13.529,6.058-13.529,13.522c0,10.704,8.791,12.509,8.855,16.805v0.868h9.341v-0.868
					c0.064-4.296,8.855-6.101,8.855-16.805C77.72,85.21,71.669,79.152,64.198,79.152z M72.088,94.234
					c-0.648,0.692-1.77,1.104-3.145,0.894c-0.298,0.718-0.596,1.586-0.858,2.628c-1.244,4.888-1.2,7.215-1.2,7.258
					c0,0.315-0.245,0.569-0.561,0.569c0,0,0,0-0.009,0c-0.307,0-0.552-0.245-0.561-0.552c0-0.175-0.044-2.519,1.235-7.556
					c0.254-0.972,0.534-1.857,0.85-2.637c-0.464-0.166-0.937-0.403-1.437-0.71c-0.885-0.552-1.612-1.2-2.19-1.875
					c-0.578,0.666-1.323,1.297-2.216,1.84c-0.491,0.307-0.981,0.534-1.445,0.692c0.307,0.78,0.578,1.664,0.815,2.645
					c1.2,5.054,1.095,7.398,1.086,7.574c-0.009,0.315-0.254,0.535-0.578,0.552c-0.307-0.009-0.552-0.271-0.543-0.587
					c0-0.035,0.105-2.37-1.069-7.276c-0.245-1.042-0.526-1.918-0.815-2.637c-1.375,0.184-2.488-0.237-3.136-0.946
					c-0.64-0.701-0.736-1.638-0.228-2.33c0.394-0.517,0.946-0.745,1.542-0.631c0.885,0.184,1.743,1.104,2.479,2.602
					c0.412-0.14,0.85-0.342,1.314-0.622c0.885-0.543,1.586-1.165,2.111-1.787c-0.762-1.191-1.034-2.365-0.797-3.171
					c0.202-0.701,0.771-1.121,1.524-1.113c0.744,0.009,1.314,0.429,1.507,1.13c0.219,0.815-0.07,1.98-0.85,3.162
					c0.517,0.631,1.209,1.27,2.094,1.822c0.455,0.289,0.885,0.491,1.296,0.64c0.762-1.48,1.629-2.392,2.523-2.558
					c0.587-0.105,1.147,0.123,1.524,0.648C72.85,92.604,72.745,93.533,72.088,94.234z M64.248,88.189
					c-0.289-0.009-0.377,0.114-0.438,0.298c-0.114,0.412,0.018,1.086,0.421,1.848c0.42-0.753,0.561-1.428,0.447-1.84
					C64.624,88.312,64.537,88.189,64.248,88.189z"/>
				<g id="Idea">
					<g>
						<g>
							<path style="fill:#BA68C8;" d="M64.374,75.925c-0.067,0.019-0.136,0.028-0.208,0.028c-0.434,0.001-0.786-0.35-0.787-0.784
								l-0.007-4.097c-0.001-0.436,0.351-0.787,0.784-0.787c0.434-0.001,0.786,0.35,0.787,0.784l0.007,4.097
								C64.95,75.528,64.706,75.833,64.374,75.925z"/>
						</g>
						<g>
							<path style="fill:#BA68C8;" d="M55.637,78.282c-0.336,0.093-0.705-0.048-0.888-0.364l-2.055-3.544
								c-0.218-0.376-0.09-0.856,0.285-1.074c0.376-0.218,0.856-0.09,1.074,0.285l2.055,3.543c0.217,0.376,0.089,0.856-0.286,1.074
								C55.763,78.239,55.7,78.265,55.637,78.282z"/>
						</g>
						<g>
							<path style="fill:#BA68C8;" d="M49.25,84.691c-0.195,0.054-0.411,0.033-0.6-0.076l-3.551-2.042
								c-0.377-0.216-0.506-0.697-0.29-1.073c0.216-0.377,0.698-0.505,1.072-0.29l3.551,2.042c0.377,0.216,0.506,0.697,0.29,1.072
								C49.615,84.512,49.442,84.638,49.25,84.691z"/>
						</g>
						<g>
							<path style="fill:#BA68C8;" d="M46.924,93.436c-0.067,0.018-0.136,0.028-0.209,0.028l-4.097,0.007
								c-0.434,0.001-0.786-0.35-0.787-0.784c-0.001-0.435,0.352-0.788,0.784-0.787l4.097-0.007c0.434-0.001,0.786,0.35,0.787,0.784
								C47.501,93.039,47.257,93.344,46.924,93.436z"/>
						</g>
						<g>
							<path style="fill:#BA68C8;" d="M85.982,93.368c-0.067,0.019-0.136,0.028-0.208,0.028l-4.096,0.008
								c-0.434,0.001-0.786-0.35-0.787-0.784c-0.001-0.435,0.35-0.789,0.784-0.787l4.096-0.007c0.434-0.001,0.786,0.35,0.787,0.784
								C86.558,92.97,86.314,93.276,85.982,93.368z"/>
						</g>
						<g>
							<path style="fill:#BA68C8;" d="M79.526,84.639c-0.336,0.093-0.706-0.049-0.888-0.364c-0.218-0.376-0.09-0.857,0.285-1.074
								l3.545-2.054c0.377-0.217,0.857-0.09,1.074,0.285c0.218,0.376,0.09,0.857-0.285,1.074l-3.545,2.054
								C79.652,84.596,79.59,84.622,79.526,84.639z"/>
						</g>
						<g>
							<path style="fill:#BA68C8;" d="M73.117,78.251c-0.195,0.054-0.411,0.033-0.6-0.076c-0.377-0.216-0.506-0.697-0.29-1.073
								l2.042-3.551c0.216-0.377,0.698-0.505,1.073-0.29c0.377,0.216,0.506,0.697,0.29,1.073l-2.042,3.551
								C73.482,78.072,73.309,78.198,73.117,78.251z"/>
						</g>
					</g>
				</g>
			</g>
			<g style="opacity:0.5;">
				<g>
					<path style="fill:#FFFFFF;" d="M59.524,115.252c0,0.487,0.395,0.881,0.881,0.881h7.625c0.487,0,0.881-0.395,0.881-0.881v-3.39
						h-9.387V115.252z M71.037,92.359c-0.377,0.07-0.964,0.587-1.568,1.691c0.797,0.044,1.437-0.201,1.805-0.587
						c0.105-0.123,0.438-0.517,0.166-0.894C71.282,92.35,71.15,92.341,71.037,92.359z M57.397,92.254
						c-0.026,0-0.053-0.009-0.079-0.009c-0.096,0-0.201,0.044-0.324,0.21c-0.28,0.377,0.044,0.78,0.149,0.894
						c0.359,0.394,0.99,0.657,1.796,0.622C58.352,92.858,57.774,92.333,57.397,92.254z M64.198,79.152
						c-7.471,0-13.529,6.058-13.529,13.522c0,10.704,8.791,12.509,8.855,16.805v0.868h9.341v-0.868
						c0.064-4.296,8.855-6.101,8.855-16.805C77.72,85.21,71.669,79.152,64.198,79.152z M72.088,94.234
						c-0.648,0.692-1.77,1.104-3.145,0.894c-0.298,0.718-0.596,1.586-0.858,2.628c-1.244,4.888-1.2,7.215-1.2,7.258
						c0,0.315-0.245,0.569-0.561,0.569c0,0,0,0-0.009,0c-0.307,0-0.552-0.245-0.561-0.552c0-0.175-0.044-2.519,1.235-7.556
						c0.254-0.972,0.534-1.857,0.85-2.637c-0.464-0.166-0.937-0.403-1.437-0.71c-0.885-0.552-1.612-1.2-2.19-1.875
						c-0.578,0.666-1.323,1.297-2.216,1.84c-0.491,0.307-0.981,0.534-1.445,0.692c0.307,0.78,0.578,1.664,0.815,2.645
						c1.2,5.054,1.095,7.398,1.086,7.574c-0.009,0.315-0.254,0.535-0.578,0.552c-0.307-0.009-0.552-0.271-0.543-0.587
						c0-0.035,0.105-2.37-1.069-7.276c-0.245-1.042-0.526-1.918-0.815-2.637c-1.375,0.184-2.488-0.237-3.136-0.946
						c-0.64-0.701-0.736-1.638-0.228-2.33c0.394-0.517,0.946-0.745,1.542-0.631c0.885,0.184,1.743,1.104,2.479,2.602
						c0.412-0.14,0.85-0.342,1.314-0.622c0.885-0.543,1.586-1.165,2.111-1.787c-0.762-1.191-1.034-2.365-0.797-3.171
						c0.202-0.701,0.771-1.121,1.524-1.113c0.744,0.009,1.314,0.429,1.507,1.13c0.219,0.815-0.07,1.98-0.85,3.162
						c0.517,0.631,1.209,1.27,2.094,1.822c0.455,0.289,0.885,0.491,1.296,0.64c0.762-1.48,1.629-2.392,2.523-2.558
						c0.587-0.105,1.147,0.123,1.524,0.648C72.85,92.604,72.745,93.533,72.088,94.234z M64.248,88.189
						c-0.289-0.009-0.377,0.114-0.438,0.298c-0.114,0.412,0.018,1.086,0.421,1.848c0.42-0.753,0.561-1.428,0.447-1.84
						C64.624,88.312,64.537,88.189,64.248,88.189z"/>
				</g>
				<g id="Idea_1_">
					<g>
						<g>
							<g>
								<path style="fill:#FFFFFF;" d="M64.374,75.925c-0.067,0.019-0.136,0.028-0.208,0.028c-0.434,0.001-0.786-0.35-0.787-0.784
									l-0.007-4.097c-0.001-0.436,0.351-0.787,0.784-0.787c0.434-0.001,0.786,0.35,0.787,0.784l0.007,4.097
									C64.95,75.528,64.706,75.833,64.374,75.925z"/>
							</g>
						</g>
						<g>
							<g>
								<path style="fill:#FFFFFF;" d="M55.637,78.282c-0.336,0.093-0.705-0.048-0.888-0.364l-2.055-3.544
									c-0.218-0.376-0.09-0.856,0.285-1.074c0.376-0.218,0.856-0.09,1.074,0.285l2.055,3.543c0.217,0.376,0.089,0.856-0.286,1.074
									C55.763,78.239,55.7,78.265,55.637,78.282z"/>
							</g>
						</g>
						<g>
							<g>
								<path style="fill:#FFFFFF;" d="M49.25,84.691c-0.195,0.054-0.411,0.033-0.6-0.076l-3.551-2.042
									c-0.377-0.216-0.506-0.697-0.29-1.073c0.216-0.377,0.698-0.505,1.072-0.29l3.551,2.042c0.377,0.216,0.506,0.697,0.29,1.072
									C49.615,84.512,49.442,84.638,49.25,84.691z"/>
							</g>
						</g>
						<g>
							<g>
								<path style="fill:#FFFFFF;" d="M46.924,93.436c-0.067,0.018-0.136,0.028-0.209,0.028l-4.097,0.007
									c-0.434,0.001-0.786-0.35-0.787-0.784c-0.001-0.435,0.352-0.788,0.784-0.787l4.097-0.007
									c0.434-0.001,0.786,0.35,0.787,0.784C47.501,93.039,47.257,93.344,46.924,93.436z"/>
							</g>
						</g>
						<g>
							<g>
								<path style="fill:#FFFFFF;" d="M85.982,93.368c-0.067,0.019-0.136,0.028-0.208,0.028l-4.096,0.008
									c-0.434,0.001-0.786-0.35-0.787-0.784c-0.001-0.435,0.35-0.789,0.784-0.787l4.096-0.007c0.434-0.001,0.786,0.35,0.787,0.784
									C86.558,92.97,86.314,93.276,85.982,93.368z"/>
							</g>
						</g>
						<g>
							<g>
								<path style="fill:#FFFFFF;" d="M79.526,84.639c-0.336,0.093-0.706-0.049-0.888-0.364c-0.218-0.376-0.09-0.857,0.285-1.074
									l3.545-2.054c0.377-0.217,0.857-0.09,1.074,0.285c0.218,0.376,0.09,0.857-0.285,1.074l-3.545,2.054
									C79.652,84.596,79.59,84.622,79.526,84.639z"/>
							</g>
						</g>
						<g>
							<g>
								<path style="fill:#FFFFFF;" d="M73.117,78.251c-0.195,0.054-0.411,0.033-0.6-0.076c-0.377-0.216-0.506-0.697-0.29-1.073
									l2.042-3.551c0.216-0.377,0.698-0.505,1.073-0.29c0.377,0.216,0.506,0.697,0.29,1.073l-2.042,3.551
									C73.482,78.072,73.309,78.198,73.117,78.251z"/>
							</g>
						</g>
					</g>
				</g>
			</g>
		</g>
	</g>
	<g id="Bubble_7_">
		<g>
			<g>
				<polygon style="fill:#455A64;" points="440.077,344.916 405.807,279.272 381.19,279.393 381.184,278.393 406.41,278.27 
					406.552,278.54 440.964,344.453 				"/>
			</g>
			<path style="fill:#455A64;" d="M383.596,278.918c0,1.33-1.078,2.408-2.408,2.408c-1.33,0-2.408-1.078-2.408-2.408
				c0-1.33,1.078-2.408,2.408-2.408C382.517,276.51,383.596,277.588,383.596,278.918z"/>
		</g>
		<g>
			<ellipse style="fill:#FFFFFF;" cx="440.521" cy="344.684" rx="35.688" ry="35.954"/>
			<path style="fill:#BA68C8;" d="M440.521,381.596c-20.207,0-36.647-16.559-36.647-36.911c0-20.354,16.44-36.912,36.647-36.912
				s36.646,16.559,36.646,36.912C477.168,365.037,460.728,381.596,440.521,381.596z M440.521,309.689
				c-19.15,0-34.73,15.699-34.73,34.996c0,19.297,15.58,34.995,34.73,34.995s34.73-15.698,34.73-34.995
				C475.252,325.388,459.672,309.689,440.521,309.689z"/>
		</g>
		<g id="Gear">
			<path id="Gear_5_" style="fill:#BA68C8;" d="M462.219,346.713l-0.015-4.289c-0.002-0.634-0.464-1.195-1.031-1.252l-4.147-0.421
				c-0.567-0.058-1.175-0.68-1.441-1.398c-0.171-0.462-0.364-0.913-0.577-1.354c-0.347-0.716-0.446-1.588-0.138-1.966l2.772-3.401
				c0.309-0.379,0.094-1.136-0.48-1.691l-2.707-2.619c-0.574-0.556-1.344-0.765-1.719-0.468l-3.496,2.764
				c-0.375,0.297-1.183,0.248-1.801-0.041c-0.591-0.276-1.201-0.518-1.829-0.723c-0.605-0.197-1.15-0.856-1.228-1.527l-0.419-3.618
				c-0.078-0.671-0.582-1.212-1.126-1.209l-4.775,0.025c-0.544,0.003-1.038,0.487-1.103,1.081l-0.425,3.904
				c-0.065,0.594-0.512,1.176-0.983,1.327c-0.83,0.267-1.63,0.598-2.395,0.988c-0.43,0.219-1.257,0.036-1.862-0.434l-2.688-2.085
				c-0.606-0.47-1.375-0.577-1.718-0.239l-3.512,3.458c-0.343,0.338-0.198,1.122,0.323,1.751l2.032,2.451
				c0.522,0.629,0.733,1.489,0.497,1.944c-0.364,0.701-0.675,1.433-0.929,2.19c-0.172,0.513-0.706,0.999-1.226,1.057l-4.315,0.485
				c-0.52,0.058-0.939,0.62-0.937,1.254l0.014,4.289c0.002,0.634,0.464,1.195,1.031,1.253l4.147,0.421
				c0.567,0.058,1.175,0.679,1.441,1.398c0.171,0.462,0.364,0.913,0.577,1.353c0.347,0.716,0.446,1.588,0.138,1.967l-2.772,3.401
				c-0.309,0.379-0.094,1.136,0.481,1.692l2.707,2.619c0.574,0.556,1.344,0.765,1.719,0.469l3.496-2.764
				c0.375-0.297,1.183-0.248,1.801,0.041c0.591,0.276,1.201,0.518,1.829,0.722c0.605,0.197,1.15,0.856,1.228,1.527l0.419,3.619
				c0.078,0.671,0.582,1.212,1.126,1.21l4.775-0.026c0.544-0.003,1.038-0.487,1.103-1.081l0.425-3.905
				c0.065-0.594,0.512-1.175,0.984-1.327c0.831-0.267,1.631-0.598,2.395-0.988c0.43-0.219,1.257-0.035,1.862,0.434l2.688,2.085
				c0.605,0.47,1.375,0.577,1.718,0.239l3.512-3.458c0.343-0.338,0.198-1.122-0.323-1.751l-2.033-2.452
				c-0.522-0.629-0.733-1.489-0.497-1.944c0.364-0.701,0.675-1.433,0.929-2.189c0.172-0.513,0.706-0.999,1.225-1.057l4.315-0.485
				C461.802,347.909,462.221,347.347,462.219,346.713z M440.552,353.832c-5.175,0.028-9.385-4.046-9.402-9.098
				c-0.017-5.052,4.165-9.17,9.34-9.197c5.175-0.028,9.384,4.045,9.402,9.097C449.909,349.686,445.728,353.804,440.552,353.832z"/>
			<g id="Gear_6_" style="opacity:0.5;">
				<path style="fill:#FFFFFF;" d="M462.219,346.713l-0.015-4.289c-0.002-0.634-0.464-1.195-1.031-1.252l-4.147-0.421
					c-0.567-0.058-1.175-0.68-1.441-1.398c-0.171-0.462-0.364-0.913-0.577-1.354c-0.347-0.716-0.446-1.588-0.138-1.966l2.772-3.401
					c0.309-0.379,0.094-1.136-0.48-1.691l-2.707-2.619c-0.574-0.556-1.344-0.765-1.719-0.468l-3.496,2.764
					c-0.375,0.297-1.183,0.248-1.801-0.041c-0.591-0.276-1.201-0.518-1.829-0.723c-0.605-0.197-1.15-0.856-1.228-1.527l-0.419-3.618
					c-0.078-0.671-0.582-1.212-1.126-1.209l-4.775,0.025c-0.544,0.003-1.038,0.487-1.103,1.081l-0.425,3.904
					c-0.065,0.594-0.512,1.176-0.983,1.327c-0.83,0.267-1.63,0.598-2.395,0.988c-0.43,0.219-1.257,0.036-1.862-0.434l-2.688-2.085
					c-0.606-0.47-1.375-0.577-1.718-0.239l-3.512,3.458c-0.343,0.338-0.198,1.122,0.323,1.751l2.032,2.451
					c0.522,0.629,0.733,1.489,0.497,1.944c-0.364,0.701-0.675,1.433-0.929,2.19c-0.172,0.513-0.706,0.999-1.226,1.057l-4.315,0.485
					c-0.52,0.058-0.939,0.62-0.937,1.254l0.014,4.289c0.002,0.634,0.464,1.195,1.031,1.253l4.147,0.421
					c0.567,0.058,1.175,0.679,1.441,1.398c0.171,0.462,0.364,0.913,0.577,1.353c0.347,0.716,0.446,1.588,0.138,1.967l-2.772,3.401
					c-0.309,0.379-0.094,1.136,0.481,1.692l2.707,2.619c0.574,0.556,1.344,0.765,1.719,0.469l3.496-2.764
					c0.375-0.297,1.183-0.248,1.801,0.041c0.591,0.276,1.201,0.518,1.829,0.722c0.605,0.197,1.15,0.856,1.228,1.527l0.419,3.619
					c0.078,0.671,0.582,1.212,1.126,1.21l4.775-0.026c0.544-0.003,1.038-0.487,1.103-1.081l0.425-3.905
					c0.065-0.594,0.512-1.175,0.984-1.327c0.831-0.267,1.631-0.598,2.395-0.988c0.43-0.219,1.257-0.035,1.862,0.434l2.688,2.085
					c0.605,0.47,1.375,0.577,1.718,0.239l3.512-3.458c0.343-0.338,0.198-1.122-0.323-1.751l-2.033-2.452
					c-0.522-0.629-0.733-1.489-0.497-1.944c0.364-0.701,0.675-1.433,0.929-2.189c0.172-0.513,0.706-0.999,1.225-1.057l4.315-0.485
					C461.802,347.909,462.221,347.347,462.219,346.713z M440.552,353.832c-5.175,0.028-9.385-4.046-9.402-9.098
					c-0.017-5.052,4.165-9.17,9.34-9.197c5.175-0.028,9.384,4.045,9.402,9.097C449.909,349.686,445.728,353.804,440.552,353.832z"/>
			</g>
		</g>
	</g>
	<g id="Bubble_5_">
		<g>
			<g>
				<polygon style="fill:#455A64;" points="405.442,189.957 376.916,189.957 376.916,188.957 404.845,188.957 444.479,115.097 
					445.36,115.57 				"/>
			</g>
			<path style="fill:#455A64;" d="M379.324,189.457c0,1.33-1.078,2.408-2.408,2.408c-1.33,0-2.408-1.078-2.408-2.408
				c0-1.33,1.078-2.408,2.408-2.408C378.246,187.049,379.324,188.127,379.324,189.457z"/>
		</g>
		<g>
			<ellipse style="fill:#FFFFFF;" cx="444.92" cy="115.333" rx="35.688" ry="35.954"/>
			<path style="fill:#BA68C8;" d="M444.92,152.244c-20.207,0-36.646-16.559-36.646-36.911c0-20.354,16.439-36.912,36.646-36.912
				c20.207,0,36.646,16.559,36.646,36.912C481.566,135.686,465.127,152.244,444.92,152.244z M444.92,80.337
				c-19.15,0-34.73,15.699-34.73,34.996s15.58,34.995,34.73,34.995c19.15,0,34.73-15.698,34.73-34.995S464.07,80.337,444.92,80.337z
				"/>
		</g>
		<g id="Study_2_">
			<path id="Study" style="fill:#BA68C8;" d="M442.38,110.366c-0.19-0.685-0.095-1.391,0.264-2.003
				c0.464-0.812,1.339-1.318,2.277-1.318c0.464,0,0.917,0.116,1.318,0.348l14.167,8.18l10.203-5.892L444.92,94.85l-25.688,14.831
				l25.688,14.831l10.214-5.892l-11.532-6.662C442.991,111.609,442.559,111.04,442.38,110.366z M426.758,116.49v8.495
				c0,2.677,1.771,5.365,5.323,7.41c6.04,3.489,15.284,4.006,22.273,1.549l0.706-4.037c-0.548-0.643-0.864-1.465-0.864-2.33
				c0-0.938,0.358-1.771,0.938-2.414v-4.078l-10.214,5.892L426.758,116.49z M460.405,125.164c0.58,0.643,0.938,1.476,0.938,2.414
				c0,0.864-0.316,1.687-0.864,2.33l0.074,0.422c1.686-1.644,2.54-3.5,2.54-5.344v-8.495l-2.688,1.549V125.164z M459.763,127.581
				c0-0.713-0.377-1.335-0.94-1.687v-9.407l-13.373-7.721c-0.504-0.291-1.149-0.119-1.44,0.386c-0.291,0.505-0.118,1.149,0.386,1.44
				l12.319,7.112v8.19c-0.563,0.353-0.941,0.974-0.941,1.687c0,0.737,0.404,1.373,0.998,1.718l-0.956,5.47
				c0,1.396,3.905,1.396,3.905,0l-0.956-5.47C459.359,128.954,459.763,128.318,459.763,127.581z"/>
			<g id="Study_1_" style="opacity:0.5;">
				<path style="fill:#FFFFFF;" d="M442.38,110.366c-0.19-0.685-0.095-1.391,0.264-2.003c0.464-0.812,1.339-1.318,2.277-1.318
					c0.464,0,0.917,0.116,1.318,0.348l14.167,8.18l10.203-5.892L444.92,94.85l-25.688,14.831l25.688,14.831l10.214-5.892
					l-11.532-6.662C442.991,111.609,442.559,111.04,442.38,110.366z M426.758,116.49v8.495c0,2.677,1.771,5.365,5.323,7.41
					c6.04,3.489,15.284,4.006,22.273,1.549l0.706-4.037c-0.548-0.643-0.864-1.465-0.864-2.33c0-0.938,0.358-1.771,0.938-2.414
					v-4.078l-10.214,5.892L426.758,116.49z M460.405,125.164c0.58,0.643,0.938,1.476,0.938,2.414c0,0.864-0.316,1.687-0.864,2.33
					l0.074,0.422c1.686-1.644,2.54-3.5,2.54-5.344v-8.495l-2.688,1.549V125.164z M459.763,127.581c0-0.713-0.377-1.335-0.94-1.687
					v-9.407l-13.373-7.721c-0.504-0.291-1.149-0.119-1.44,0.386c-0.291,0.505-0.118,1.149,0.386,1.44l12.319,7.112v8.19
					c-0.563,0.353-0.941,0.974-0.941,1.687c0,0.737,0.404,1.373,0.998,1.718l-0.956,5.47c0,1.396,3.905,1.396,3.905,0l-0.956-5.47
					C459.359,128.954,459.763,128.318,459.763,127.581z"/>
			</g>
		</g>
	</g>
	<g id="Bubble_4_">
		<g>
			<g>
				<polygon style="fill:#455A64;" points="118.314,337.86 60.133,337.86 60.133,336.86 117.805,336.86 140.912,304.984 
					141.722,305.571 				"/>
			</g>
			<path style="fill:#455A64;" d="M143.725,305.278c0,1.33-1.078,2.408-2.408,2.408s-2.408-1.078-2.408-2.408
				c0-1.33,1.078-2.408,2.408-2.408S143.725,303.948,143.725,305.278z"/>
		</g>
		<g>
			<ellipse style="fill:#FFFFFF;" cx="60.133" cy="337.36" rx="35.688" ry="35.954"/>
			<path style="fill:#BA68C8;" d="M60.133,374.272c-20.207,0-36.646-16.559-36.646-36.911c0-20.354,16.439-36.912,36.646-36.912
				c20.207,0,36.646,16.559,36.646,36.912C96.779,357.713,80.34,374.272,60.133,374.272z M60.133,302.365
				c-19.15,0-34.73,15.699-34.73,34.996c0,19.297,15.58,34.995,34.73,34.995s34.73-15.698,34.73-34.995
				C94.863,318.064,79.283,302.365,60.133,302.365z"/>
		</g>
		<g id="Team">
			<path id="Team_Icon_1_" style="fill:#BA68C8;" d="M60.133,336.083c3.872,0,7.011-3.139,7.011-7.01c0-3.872-3.139-7.01-7.011-7.01
				c-3.871,0-7.011,3.138-7.011,7.01C53.122,332.944,56.261,336.083,60.133,336.083z M72.295,344.909
				c-0.711-3.328-3.651-5.707-7.054-5.707l-10.216,0c-3.404,0-6.345,2.379-7.055,5.709l-1.251,5.861
				c-0.248,1.161,0.638,2.256,1.825,2.256l23.177,0c1.188,0,2.073-1.095,1.825-2.256L72.295,344.909z M75.972,331.768
				c2.782,0,5.037-2.256,5.037-5.038c0-2.782-2.256-5.038-5.037-5.038c-2.783,0-5.037,2.256-5.037,5.038
				C70.935,329.513,73.19,331.768,75.972,331.768z M84.718,337.456c-0.52-2.369-2.629-4.087-5.075-4.087l-7.34,0
				c-2.083,0-3.904,1.223-4.712,3.045c3.567,0.729,6.534,3.384,7.627,6.898l8.91,0c1.405,0,1.6-0.362,1.314-1.742L84.718,337.456z
				 M49.33,326.731c0-2.782-2.255-5.038-5.037-5.038c-2.782,0-5.037,2.256-5.037,5.038c0,2.782,2.256,5.038,5.037,5.038
				C47.076,331.768,49.33,329.513,49.33,326.731z M34.824,341.57c-0.286,1.379-0.091,1.742,1.314,1.742l8.91,0
				c1.093-3.514,4.06-6.169,7.627-6.898c-0.808-1.822-2.629-3.045-4.711-3.045l-7.34,0c-2.446,0-4.555,1.718-5.075,4.087
				L34.824,341.57z"/>
			<g id="Team_Icon_2_" style="opacity:0.5;">
				<path style="fill:#FFFFFF;" d="M60.133,336.083c3.872,0,7.011-3.139,7.011-7.01c0-3.872-3.139-7.01-7.011-7.01
					c-3.871,0-7.011,3.138-7.011,7.01C53.122,332.944,56.261,336.083,60.133,336.083z M72.295,344.909
					c-0.711-3.328-3.651-5.707-7.054-5.707l-10.216,0c-3.404,0-6.345,2.379-7.055,5.709l-1.251,5.861
					c-0.248,1.161,0.638,2.256,1.825,2.256l23.177,0c1.188,0,2.073-1.095,1.825-2.256L72.295,344.909z M75.972,331.768
					c2.782,0,5.037-2.256,5.037-5.038c0-2.782-2.256-5.038-5.037-5.038c-2.783,0-5.037,2.256-5.037,5.038
					C70.935,329.513,73.19,331.768,75.972,331.768z M84.718,337.456c-0.52-2.369-2.629-4.087-5.075-4.087l-7.34,0
					c-2.083,0-3.904,1.223-4.712,3.045c3.567,0.729,6.534,3.384,7.627,6.898l8.91,0c1.405,0,1.6-0.362,1.314-1.742L84.718,337.456z
					 M49.33,326.731c0-2.782-2.255-5.038-5.037-5.038c-2.782,0-5.037,2.256-5.037,5.038c0,2.782,2.256,5.038,5.037,5.038
					C47.076,331.768,49.33,329.513,49.33,326.731z M34.824,341.57c-0.286,1.379-0.091,1.742,1.314,1.742l8.91,0
					c1.093-3.514,4.06-6.169,7.627-6.898c-0.808-1.822-2.629-3.045-4.711-3.045l-7.34,0c-2.446,0-4.555,1.718-5.075,4.087
					L34.824,341.57z"/>
			</g>
		</g>
	</g>
</g>
</svg>
